<?xml version="1.0" encoding="UTF-8"?>
<svg id="Layer_1" data-name="Layer 1" xmlns="http://www.w3.org/2000/svg" baseProfile="tiny" version="1.2" viewBox="0 0 1080 1080">
  <circle id="bg" cx="540" cy="540" r="540" fill="#ff4545" stroke-width="0"/>
  <g id="body">
    <path id="base" d="M80.4,823.7c13.8,5.4,27.9,10.5,42.4,15.1,79.5,25.7,168.8,39.8,251.5,39.8s98.1-5.4,136.7-15.6c47.2-12.5,92.4-35.5,134.3-68.4,40.2-31.5,76.1-71.6,103.8-116,28.1-44.9,47.9-94.5,57.5-143.3,10.1-52,8.9-102.5-3.6-149.9-10.6-40.1-28.3-77.8-52.5-111.9-23.2-32.7-52-61.5-85.6-85.6-66.4-47.7-147.6-74-228.9-74s-64,4.1-94.6,12.2c-79.9,21.1-180.5,82.7-269,164.7-7.5,6.9-14.8,14-22,21C18.1,381.1,0,458.4,0,540s29.4,201.2,80.4,283.7Z" fill="#1592ff" stroke-width="0"/>
    <path id="outline" d="M514.6,876.3c200.4-53,355.8-289.9,301.7-494.4-45.3-171.4-210.2-281.8-380.3-281.8s-65.7,4.1-98.1,12.7c-80.5,21.3-179.9,81.5-268.4,162-6.8,12.1-13.2,24.4-19.1,37,7.2-7.1,14.5-14.1,22-21,88.5-82,189.1-143.5,269-164.7,30.6-8.1,62.4-12.2,94.6-12.2,81.2,0,162.5,26.3,228.9,74,33.5,24.1,62.3,52.9,85.6,85.6,24.3,34.1,41.9,71.8,52.5,111.9,12.6,47.5,13.8,97.9,3.6,149.9-9.5,48.9-29.4,98.4-57.5,143.3-27.7,44.4-63.7,84.5-103.8,116-42,32.9-87.1,55.9-134.3,68.4-38.6,10.2-85.9,15.6-136.7,15.6-82.7,0-172-14.1-251.5-39.8-14.5-4.7-28.7-9.7-42.4-15.1,4.1,6.6,8.3,13.1,12.6,19.4,91.9,33.3,192.4,49.2,281.3,49.2s100.2-5.4,140.2-16Z" fill="#000" stroke-width="0"/>
    <path id="wing2" d="M49.1,739.8c36.4,4.7,135.6-117.2,151.6-155.5,2-4.8,2-6.6,1.7-7.3-.5-1-3-1.7-6-2.5-8.7-2.4-24.8-6.8-42.5-31.4-5.3-7.3-5.3-19.6-5.3-31.6,0-12.5,0-24.2-6.2-25-1.2-.2-2.5-.2-3.9-.2-29.6,0-96.5,34.6-138.3,67.2,1.6,63.7,14.2,124.7,36,181.1,4.7,2.9,9.1,4.6,13,5.1Z" fill="#2e6bd4" stroke-width="0"/>
    <path id="wing1" d="M51.1,744.9c24.2,0,63.5-39.4,85.2-63.4,31-34.3,60.7-75.2,69.1-95.2,2.3-5.6,2.8-8.9,1.6-11.5-1.5-3-4.9-4-9.2-5.1-8.6-2.4-23.1-6.4-39.8-29.5-4.3-6-4.3-18-4.4-28.7,0-14.7,0-28.6-10.6-30h0c-28.2-3.6-98,31.3-143,65.7,0,2.1,0,4.1.1,6.2,41.8-32.6,108.7-67.2,138.3-67.2s2.7,0,3.9.2c6.2.8,6.2,12.6,6.2,25,0,11.9,0,24.3,5.3,31.6,17.7,24.5,33.9,29,42.5,31.4,3,.8,5.5,1.5,6,2.5.3.7.3,2.5-1.7,7.3-16.1,38.3-115.2,160.1-151.6,155.5-3.9-.5-8.2-2.2-13-5.1.9,2.4,1.9,4.8,2.8,7.2,3.3,1.5,6.5,2.5,9.5,2.9.8.1,1.7.2,2.6.2Z" fill="#000" stroke-width="0"/>
  </g>
  <g id="head">
    <path d="M845.8,394.3c-14-21.7-15.8-43.5-3.3-67.1,10.9-20.4,9.7-42.2.9-63.4-7.9-19-22.1-32.4-39.4-42.8-1.9-1.1-3.6-3.5-4.2-5.6-4.9-17.2-8.2-34.9-14.4-51.5-15.1-40.5-44-69.1-82-88.7-29.8-15.4-62-24.1-94.8-30.6-57-11.2-113.7-9.7-170.2,3.2-41.7,9.6-81.5,24.5-119.7,43.7-42.1,21.2-81.5,46.4-115,79.8-10.3,10.3-20,21.1-28.6,32.6,11.7-5.3,23.5-10.4,34.4-16.9,18.4-19.2,39.1-35.8,61.7-50.6,49.1-32.2,101.9-56,158.7-70.8,51.8-13.5,104.3-17.4,157.3-9.2,37.8,5.8,74.9,14.6,109.2,32.3,38,19.6,65.7,48.8,78.4,90.4,4.6,14.9,7.6,30.3,11,45.5.8,3.4,2,5.3,5.2,6.9,15.8,8.1,29.2,18.8,37.1,35.2,9.1,19,9.1,38.2-.5,57-9.6,18.6-12.1,37.7-4.9,57.7.2.6.2,1.3.4,2.1l-12.8,3.4c-4-12.9-8.3-25.5-22.1-32,3.8-1.9,7.1-3.2,9.9-5.2,1.2-.9,1.3-3.3,1.9-5-1.5.3-3.2.1-4.4.9-11.3,6.8-23.8,7.5-36.4,6.6-17.7-1.2-34.2-5.7-47.7-18.1-.3-.3-.9-.4-1.4-.6q-2.3,4.2,14,15.6c-18.1,13.3-30.9,31.2-42.9,49.9-.6,0-1.2-.2-1.8-.3.4-11.5.7-22.9,1.1-36.1-1.9,2.4-3.5,3.5-3.8,4.9-3.4,18.2-3.2,35.9,7.5,52.1,4.8,7.2,10.8,13,18.8,16.2,21.4,8.7,31.7,25.5,34.7,47.4,1.1,8.3,0,16.9,1.5,25.1,2.4,13.1,5.6,26.2,9.6,38.9,5.6,17.5,12.1,34.7,18.5,51.9,3,7.9,1.9,14.5-3.7,20.9-6.4,7.3-13.5,13.5-22.4,17.8-7.2,3.4-13.8,2.9-20.5-1.2-12-7.4-23.9-15-36.3-21.7-6.5-3.6-13.8-6.1-21-8.1-7-1.9-12.1.4-14.4,4.9-2.4,4.7-1.1,10.7,4,15.3,3.1,2.9,7,5,10.5,7.4.6-.6,1.2-1.2,1.8-1.7-1.2-1.7-2.2-3.6-3.6-5-2.2-2.1-5.2-3.6-7.1-5.9-1.3-1.6-2.4-4.7-1.7-6.3.7-1.6,4-3.4,5.7-3,5.8,1.1,12,2.1,17.1,4.8,11.8,6.4,23,13.7,34.4,20.7,3.1,1.9,6.3,3.5,9.3,5.6,8.1,5.8,16.2,4.4,24.2,0,12.3-6.8,22.1-16.3,29-28.5,1.5-2.7,2.2-6.8,1.3-9.6-4.7-14.7-10.1-29.2-15.2-43.8-.9-2.6-1.8-5.1-2.7-7.7,8.6-2.3,15.3,2.1,17,11.2,1.1,6.1,1,12.3,2,18.4.5,3.2,1.7,6.7,3.8,9.1,16,18.1,26.2,38.9,31,62.5.4,1.9,1.2,3.6,1.9,5.4.6,0,1.1-.2,1.7-.3,0-2.2,0-4.4-.3-6.5-4-22.7-13.8-42.7-28.7-60.2-3.7-4.4-5.4-8.8-5.3-14.4.1-5.1-.3-10.3-1.1-15.4-1.9-11.6-9.2-17.2-21-16.6-1,0-2,0-3.7.2-3-16.3-10.4-31.5-9.9-48.7.3-9.5-1.3-19-2-28.7,17.4,5.6,34.1,1.2,50.8-3.9,0-.6-.1-1.3-.2-1.9-1.8.3-3.6.5-5.4,1-14.5,4.2-29,5.5-43.5.2-2.3-.8-4.2-2.5-6.3-3.8.2-.5.4-1,.6-1.5,3.7-.4,7.4-.8,11.1-1.2,29.8-3.4,52-21.8,59.2-48.9.6-2.3,1.3-4.7,1.3-7.1,0-4.9,2.5-5.2,6.6-5.1,10.3.2,17.7,3.5,23.1,13.5,7.8,14.4,17.7,27.7,26.7,41.5,12.6,19.1,12.4,35-1.8,54.2-8.5,11.4-18.3,21.9-26.8,33.2-14.7,19.6-23.2,41.5-20.9,66.3,1.1,11.7,3.7,23.4,6.7,34.8,9.1,34.6,18.5,69.1,28.4,103.4,3.8,13.2,9.2,25.9,13.6,38.8,2.8,8.2,8.3,13.7,15.8,18.1,12.5,7.3,24,16.1,33,27.6,5.8,7.4,10.3,15.5,10,25.3-.5,13.3-9,21.5-19.2,28.2-14.9,9.8-31.7,14.5-48.4,18-2.3-13.1-4-26-7.1-38.6-3.6-14.7-11.1-27-26.3-32.8-8.9-3.4-18.3-3.7-27.4-2.3-11.2,1.8-22.2,4.6-33.2,7.3-3.5.9-8.8,2.3-7.6,6.7,1.3,4.7,6.2,2.2,9.8,1.8,14.1-1.6,28.2-4.3,42.4-4.4,17-.1,28.5,9.1,32.3,25.7,3.1,14,4,28.4,5.4,42.7.2,2.1-1.8,4.7-3.4,6.5-16.1,19.4-37.4,30.1-61.9,32.3-22.7,2.1-45.6,1.6-68.4,1.4-43.1-.5-85.7-5.3-127.2-17.3-20.1-5.8-39.5-13.2-56.6-25.4-2.7-1.9-5.4-5-6.3-8.1-12.7-43.2-25.6-86.3-37.3-129.8-7.1-26.4-12.1-53.3-17.9-80-1.4-6.4-2.1-12.8-3.3-20.2,27.6,6.2,54.3,4.2,81-4.2,3.1,9.9,5.9,19.4,9.1,28.8,3.5,10.2,7.1,20.5,11,30.5,1.1,2.7,3.5,5,5.7,7,1.1.9,3.7,1.4,4.7.7,1.3-.9,2.2-3.1,2.2-4.8,0-2-.8-4-1.5-5.9-5.4-14.5-11.1-28.8-16-43.4-3.1-9.2-5.1-18.8-7.8-29.1-12.4,7-24.6,10.9-37.5,11.9-37.3,3-71.2-5.3-98.5-32.2-19-18.7-24.7-42.2-20.9-68.2.8-5.6,2.4-11.1,3.5-16.6.7-3.4,1.7-7.5-2.7-8.7-4.3-1.3-6.6,2.3-8,5.7-7.9,19.5-9.2,39.4-2.5,59.4,10.5,31.5,32.7,51.7,62.9,63.9,3.5,1.4,4.7,3.1,5.3,6.8,3.9,24.6,7.5,49.2,12.6,73.6,4.7,22.4,10.2,44.7,16.3,66.8,6.1,22.2,12.9,44.3,20.3,66.1,2,6,4,12,6.1,17.9s3.6,11.8,6.5,17.1c4.2,7.7,11.9,12.8,19.5,16.8,8.4,4.4,17.2,8.3,26.1,11.6,1,.4,2.1.8,3.1,1.1,10.8,3.8,22,6.9,33.1,9.6,36.2,8.8,73.1,13.1,110.2,13.3,26,.1,52.2,2.7,78.1-1.6,29.2-4.8,53.9-17.7,72.1-41.8,1.3-1.7,3.6-3.2,5.7-3.7,19.6-4.7,38.7-10.7,55.3-22.8,21.4-15.7,27.7-39.2,15.6-61.6-8.8-16.3-22.7-27.8-37.7-38-6.4-4.4-14.1-7.3-16.7-15.8-2.1-6.5-5.2-12.7-7.1-19.3-12.5-44.5-25-89-37.1-133.6-7.3-26.7-2.5-51.5,14.3-73.6,8.1-10.7,17.1-20.6,25.3-31.2,20.7-26.5,21.4-50.1,3.1-77.1-10.7-15.8-20.7-31.9-31-47.9ZM806.3,393c.3,17.2-5.6,31.9-18.6,43.5-14.2,12.8-31.8,16.9-50.1,19.2-1.1.1-2.9-.5-3.5-1.4-7.2-11.8-19.2-17.2-30.7-23.4-3.9-2.1-7.3-4.9-11.6-7.8,12.8-11.9,27.5-18.3,42.7-24,9.4,21.8,18.9,28.8,34.3,25.4,20.5-4.5,25-11.3,24.5-37.5,3.4.3,6.9,0,10,1.1,1.4.4,2.9,3.2,2.9,4.9ZM804,383c-42,0-80.5,10-114.3,35.3-6.7-6.4-7.6-11.4-3.1-19.2,9.6-16.6,21.8-31.1,36.5-43.5,3.8-3.2,7.3-4.4,12.5-2.7,13.9,4.6,28.3,5.1,42.8,3.8,2.4-.2,5.1.4,7.2,1.5,9.6,5.4,15.8,13.4,18.3,24.7ZM810.3,393.1c-.1-.4-.2-.8-.3-1.2,4.9-1.3,9.8-2.6,15.2-4,1.2,2.4,2.4,4.7,3.6,7.1-6.4-.7-12.5-1.3-18.5-1.9Z" fill="#000" stroke-width="0"/>
    <path d="M823.2,383.6c-4.5,1.2-8.5,2.2-12.8,3.4-4-12.9-8.3-25.5-22.1-32,3.8-1.9,7.1-3.2,9.9-5.2,1.2-.9,1.3-3.3,1.9-5-1.5.3-3.2.1-4.4.9-11.3,6.8-23.8,7.5-36.4,6.6-17.7-1.2-34.2-5.7-47.7-18.1-.3-.3-.9-.4-1.4-.6q-2.3,4.2,14,15.6c-18.1,13.3-30.9,31.2-42.9,49.9-.6,0-1.2-.2-1.8-.3.4-11.5.7-22.9,1.1-36.1-1.9,2.4-3.5,3.5-3.8,4.9-3.4,18.2-3.2,35.9,7.5,52.1,4.8,7.2,10.8,13,18.8,16.2,21.4,8.7,31.7,25.5,34.7,47.4,1.1,8.3,0,16.9,1.5,25.1,2.4,13.1,5.6,26.2,9.6,38.9,5.6,17.5,12.1,34.7,18.5,51.9,3,7.9,1.9,14.5-3.7,20.9-6.4,7.3-13.5,13.5-22.4,17.8-7.2,3.4-13.8,2.9-20.5-1.2-12-7.4-23.9-15-36.3-21.7-6.5-3.6-13.8-6.1-21-8.1-7-1.9-12.1.4-14.4,4.9-2.4,4.7-1.1,10.7,4,15.3,3.1,2.9,7,5,10.5,7.4.6-.6,1.2-1.2,1.8-1.7-1.2-1.7-2.2-3.6-3.6-5-2.2-2.1-5.2-3.6-7.1-5.9-1.3-1.6-2.4-4.7-1.7-6.3.7-1.6,4-3.4,5.7-3,5.8,1.1,12,2.1,17.1,4.8,11.8,6.4,23,13.7,34.4,20.7,3.1,1.9,6.3,3.5,9.3,5.6,8.1,5.8,16.2,4.4,24.2,0,12.3-6.8,22.1-16.3,29-28.5,1.5-2.7,2.2-6.8,1.3-9.6-4.7-14.7-10.1-29.2-15.2-43.8-.9-2.6-1.8-5.1-2.7-7.7,8.6-2.3,15.3,2.1,17,11.2,1.1,6.1,1,12.3,2,18.4.5,3.2,1.7,6.7,3.8,9.1,16,18.1,26.2,38.9,31,62.5.4,1.9,1.2,3.6,1.9,5.4.6,0,1.1-.2,1.7-.3,0-2.2,0-4.4-.3-6.5-4-22.7-13.8-42.7-28.7-60.2-3.7-4.4-5.4-8.8-5.3-14.4.1-5.1-.3-10.3-1.1-15.4-1.9-11.6-9.2-17.2-21-16.6-1,0-2,0-3.7.2-3-16.3-10.4-31.5-9.9-48.7.3-9.5-1.3-19-2-28.7,17.4,5.6,34.1,1.2,50.8-3.9,0-.6-.1-1.3-.2-1.9-1.8.3-3.6.5-5.4,1-14.5,4.2-29,5.5-43.5.2-2.3-.8-4.2-2.5-6.3-3.8.2-.5.4-1,.6-1.5,3.7-.4,7.4-.8,11.1-1.2,29.8-3.4,52-21.8,59.2-48.9.6-2.3,1.3-4.7,1.3-7.1,0-4.9,2.5-5.2,6.6-5.1,10.3.2,17.7,3.5,23.1,13.5,7.8,14.4,17.7,27.7,26.7,41.5,12.6,19.1,12.4,35-1.8,54.2-8.5,11.4-18.3,21.9-26.8,33.2-14.7,19.6-23.2,41.5-20.9,66.3,1.1,11.7,3.7,23.4,6.7,34.8,9.1,34.6,18.5,69.1,28.4,103.4,3.8,13.2,9.2,25.9,13.6,38.8,2.8,8.2,8.3,13.7,15.8,18.1,12.5,7.3,24,16.1,33,27.6,5.8,7.4,10.3,15.5,10,25.3-.5,13.3-9,21.5-19.2,28.2-14.9,9.8-31.7,14.5-48.4,18-2.3-13.1-4-26-7.1-38.6-3.6-14.7-11.1-27-26.3-32.8-8.9-3.4-18.3-3.7-27.4-2.3-11.2,1.8-22.2,4.6-33.2,7.3-3.5.9-8.8,2.3-7.6,6.7,1.3,4.7,6.2,2.2,9.8,1.8,14.1-1.6,28.2-4.3,42.4-4.4,17-.1,28.5,9.1,32.3,25.7,3.1,14,4,28.4,5.4,42.7.2,2.1-1.8,4.7-3.4,6.5-16.1,19.4-37.4,30.1-61.9,32.3-22.7,2.1-45.6,1.6-68.4,1.4-43.1-.5-85.7-5.3-127.2-17.3-20.1-5.8-39.5-13.2-56.6-25.4-2.7-1.9-5.4-5-6.3-8.1-12.7-43.2-25.6-86.3-37.3-129.8-7.1-26.4-12.1-53.3-17.9-80-1.4-6.4-2.1-12.8-3.3-20.2,27.6,6.2,54.3,4.2,81-4.2,3.1,9.9,5.9,19.4,9.1,28.8,3.5,10.2,7.1,20.5,11,30.5,1.1,2.7,3.5,5,5.7,7,1.1.9,3.7,1.4,4.7.7,1.3-.9,2.2-3.1,2.2-4.8,0-2-.8-4-1.5-5.9-5.4-14.5-11.1-28.8-16-43.4-3.1-9.2-5.1-18.8-7.8-29.1-12.4,7-24.6,10.9-37.5,11.9-37.3,3-71.2-5.3-98.5-32.2-19-18.7-24.7-42.2-20.9-68.2.8-5.6,2.4-11.1,3.5-16.6.7-3.4,1.7-7.5-2.7-8.7-4.3-1.3-6.6,2.3-8,5.7-7.9,19.5-9.2,39.4-2.5,59.4,10.5,31.5,32.7,51.7,62.9,63.9,3.5,1.4,4.7,3.1,5.3,6.8,3.9,24.6,7.5,49.2,12.6,73.6,10.3,48.6.3,75.7,16.7,122.6,1.8,5.2,11.1-6.3,13.5-.3-5.8-.8-11.1-1.2-16.1-2.3-24.9-5.3-32.8,13.6-57.7,8.7-13.9-2.7-28.7,8.5-42.9,6.6-.7,0-1.3-.3-1.9-.4,3.9-16,8-31.8,11.5-47.6,9.7-44.2,17.5-88.6,19.4-133.9.4-9.2-.4-18.5-1-27.8-.2-2.8.2-4.3,3.2-5.3,3.2-1.1,6.4-2.6,9.1-4.7,1.5-1.1,2.7-3.8,2.4-5.6-.2-1.3-3-3-4.7-3.1-3.9-.3-7.9,0-11.8.7-34.3,6.7-66.2-1.1-96.9-15.7-42-19.9-76.4-48.9-100.5-88.8-11.1-18.3-20.2-37.9-28-57.9-9.1-23.3-16.7-47.3-23.1-71.5-9.2-34.9-13.7-70.4-8.5-106.6,4.6-32,15.3-61.5,34-88.1,24.1-34.3,54.9-61.7,89.8-84.6,49.1-32.2,101.9-56,158.7-70.8,51.8-13.5,104.3-17.4,157.3-9.2,37.8,5.8,74.9,14.6,109.2,32.3,38,19.6,65.7,48.8,78.4,90.4,4.6,14.9,7.6,30.3,11,45.5.8,3.4,2,5.3,5.2,6.9,15.8,8.1,29.2,18.8,37.1,35.2,9.1,19,9.1,38.2-.5,57-9.6,18.6-12.1,37.7-4.9,57.7.2.6.2,1.3.4,2.1ZM498.8,422c-2,4.4-3.6,7.5-5.1,10.8-9.9,22.6-2,47.3,19.3,59.8,16.8,9.9,35,11.1,53.8,8.6,31.7-4.2,53.8-20.5,63.3-51.7,3.8-12.5,5.7-25.2-1.4-37.5-8.3-14.4-21.6-22.7-36.4-28.9-5.9-2.4-12.1-4.3-18-6.4,3.6-4.4,7.2-8.6,10.4-13,.8-1.1.1-3.2.1-4.9-1.5.8-3.2,1.2-4.3,2.3-3.1,3.4-5.6,7.5-9,10.5-26.6,23.7-56.3,42.1-91.2,50.9-1.2.3-2,1.8-3,2.7,1.3.5,2.7,1.5,3.9,1.3,5.5-1.2,10.9-2.8,17.6-4.5ZM742.2,676.4c-17-6.7-27.6-5.1-41.1,6.8-17.9,15.7-28.7,36-36.7,58.1-1.4,3.8.3,6.3,2.9,8.5,20,17.3,43,28,69.3,31.1,12.5,1.5,23.9-1.1,33.9-8.9,16.7-13.1,27.6-30,32.5-50.5,1.4-6,2.3-13.3,0-18.6-6.1-14.1-15.4-26.3-28.2-35.4-11.5-8.2-22.7-6-30.6,5.7-.7,1-1.3,2-2,3.3ZM396.1,326.3c-2.9-5-5.3-10.4-8.8-15-12-15.6-27.1-27.6-43.8-37.9-5-3.1-10.2-5.6-15.5-8.1-3.4-1.6-6.6-.5-8.3,2.9-1.8,3.6.8,5.3,3.6,6.7,1.5.8,3.1,1.5,4.6,2.3,17.1,9,33.4,19.2,46.4,33.8,10.5,11.8,15.7,24.7,8.4,40.5-3.1,6.8-5,14.2-7.5,21.4-6.2,18.3-9.9,36.3,3.7,53.3,1.8,2.3,3,5,5,7.2,3.7,4,7.4,8.1,11.6,11.6,3.7,3,8.1,1.3,8.8-3.4.3-2.2-1.2-5.1-2.7-7.1-3-3.9-6.9-7.2-10-11-10.7-13.3-14.3-27.7-7.5-44.1,2.9-7,5.3-14.2,7.6-21.3,3.4-10.2,6.2-20.4,4.3-31.7ZM640.3,315.8c-7-25.3-19.8-46.8-37.8-65.5-2.1-2.2-4.5-5.2-7.8-2.8-3.5,2.5-1.5,5.9,0,8.8.4.9,1.1,1.8,1.7,2.5,16.5,18.1,27.1,39.6,34.1,62.8,3.2,10.7,3.4,22.2,5.3,33.3.4,2,2.6,3.7,4,5.5,1.7-1.8,3.5-3.5,5-5.5.5-.6.2-2,0-3-1.5-12.1-3-24.1-4.5-36.2ZM638.2,239.1c-1.2-3.3-1.9-5.7-2.9-8.1-9.7-21.6-22.6-41.1-37.9-59.1-3.6-4.3-7.8-8.2-12.3-11.6-3.8-2.9-8.7-.2-8.2,4.2.2,1.8,1.7,3.7,3,5,17.4,17.5,32.2,37,43.3,59.1,2.8,5.6,4.5,11.9,7.2,17.6.9,1.8,3.3,3,5,4.4,1.2-1.9,2.9-3.7,3.4-5.8.5-2-.4-4.4-.5-5.7ZM659.6,294.3c2.3,6.3,3.8,13,7,18.8,3.6,6.5,8.4,12.3,13.3,17.9,1.2,1.3,5.6,1.7,7.1.5,2.8-2.2,1.1-5.3-1-7.6-2.6-3-5.5-5.7-7.7-8.9-9.9-14-12.8-30.1-13.1-46.9-.2-12.8,2-25.3,6.6-37.3.5-1.4.2-4.5-.7-4.9-1.5-.7-3.9-.4-5.5.3-1.4.6-2.8,2.2-3.4,3.7-2.2,5.7-4.9,11.4-5.9,17.4-2.5,15.8-.4,31.5,3.3,47ZM606.4,744c.9,0,1.8-.2,2.8-.2-1-42.8,3.5-85,13.4-126.6.8.9,1.1,1.9,1.4,2.8,2.8,8,6.7,15.5,13.4,20.9,1.4,1.2,3.4,1.6,5.2,2.3.3-.5.6-1.1.9-1.6-1.8-2.2-3.7-4.3-5.4-6.6-8.6-11.8-16-24-9.5-39.3,3.4-8,7.7-15.7,11.5-23.5.7-1.4,1.3-2.9,2-4.3l-1.5-1.2c-1.9,1.9-4.5,3.5-5.5,5.8-5,10.9-10.6,21.6-14.1,33-9.2,30-13.4,61-15.5,92.2-.9,13-.7,26-.7,39.1,0,2.4,1.2,4.8,1.8,7.2ZM568.2,536.3c0,.4.1.7.2,1.1,1.6,0,3.4.3,4.7-.3,4.9-2.1,9.9-4,14.3-6.9,20.6-14,34.1-33.9,45.6-55.4.6-1.2.1-3,.1-4.6-1.2.9-2.8,1.6-3.6,2.8-7,10.1-13.5,20.7-21,30.5-10.2,13.3-21.7,25.2-38,31.3-.9.3-1.6,1-2.3,1.6ZM759.5,808.9c9.9-2.6,17.5-7.6,22.9-15.6.9-1.3.6-3.3.8-5-1.8.5-3.6.8-5.3,1.5-.7.3-1.2,1.2-1.7,1.8-9.6,11.1-21.3,15.7-35.9,11.7-2.6-.7-5.4-1.4-8.1-1.6-1.6,0-3.2.9-4.8,1.4,1.1,1.1,2,2.8,3.3,3.3,9.5,3.4,19.3,4.6,28.7,2.4ZM466.2,470.1c.5-.1,1.1,0,1.5-.3,2.3-1.4,4.6-2.8,6.8-4.2-2.4-3.6-5.2-1-7.8-.4-13.4,3-26.5,2.4-39.6-1.8-2.3-.8-4.8-.9-7.2-1.4,2,2,3.9,4,5.9,5.9.3.3.9.4,1.4.6,12.8,5.1,25.8,4.6,38.9,1.6ZM474.3,485.4c-2.2-.5-3.5-1-4.7-.9-8.7.6-21.3,12.9-22.3,21.9-.1,1.1.7,2.4,1,3.6,1.1-.6,2.8-.9,3.2-1.8,4.1-9.2,10.7-15.8,20-19.8.9-.4,1.4-1.5,2.7-3Z" fill="#1592ff" stroke-width="0"/>
    <path d="M689.7,418.3c-6.7-6.4-7.6-11.4-3.1-19.2,9.6-16.6,21.8-31.1,36.5-43.5,3.8-3.2,7.3-4.4,12.5-2.7,13.9,4.6,28.3,5.1,42.8,3.8,2.4-.2,5.1.4,7.2,1.5,9.6,5.4,15.8,13.4,18.3,24.7-42,0-80.5,10-114.3,35.3Z" fill="#2e6bd4" stroke-width="0"/>
    <path d="M734.6,399.1c9.4,21.8,18.9,28.8,34.3,25.4,20.5-4.5,25-11.3,24.5-37.5,3.4.3,6.9,0,10,1.1,1.4.4,2.9,3.2,2.9,4.9.3,17.2-5.6,31.9-18.6,43.5-14.2,12.8-31.8,16.9-50.1,19.2-1.1.1-2.9-.5-3.5-1.4-7.2-11.8-19.2-17.2-30.7-23.4-3.9-2.1-7.3-4.9-11.6-7.8,12.8-11.9,27.5-18.3,42.7-24Z" fill="#fff" stroke-width="0"/>
    <path d="M810,391.9c4.9-1.3,9.8-2.6,15.2-4,1.2,2.4,2.4,4.7,3.6,7.1-6.4-.7-12.5-1.3-18.5-1.9-.1-.4-.2-.8-.3-1.2Z" fill="#1592ff" stroke-width="0"/>
    <path d="M498.8,422c-6.6,1.7-12.1,3.3-17.6,4.5-1.1.3-2.6-.8-3.9-1.3,1-.9,1.9-2.4,3-2.7,35-8.8,64.6-27.2,91.2-50.9,3.4-3,5.9-7.1,9-10.5,1.1-1.1,2.8-1.6,4.3-2.3,0,1.7.6,3.8-.1,4.9-3.2,4.4-6.8,8.5-10.4,13,6,2.1,12.1,3.9,18,6.4,14.8,6.2,28.1,14.4,36.4,28.9,7.1,12.3,5.2,25,1.4,37.5-9.5,31.2-31.5,47.5-63.3,51.7-18.8,2.5-37,1.3-53.8-8.6-21.3-12.5-29.3-37.2-19.3-59.8,1.4-3.3,3-6.4,5.1-10.8ZM537.9,440.5c-14.3,6.1-27.6,13.7-38.9,24.5-1.1,1.1-1.3,4.5-.5,6.1,3.7,7.9,9.8,13.5,17.5,17.6,15.3,8.1,31.6,9.9,48.5,8.1,29.8-3.1,50.5-18.3,60.8-46.7,3-8.2,4.5-16.9,2.5-26.6-9.1.2-18,.5-27,.7.6,24.6-5.2,34.7-21.5,38.5-21,4.9-31.1-.5-41.5-22.3ZM495.5,461.6c37.9-32,82-44,132.2-43.1-4-5.3-6.7-9.8-10.3-13.5-12.5-12.6-28.5-18.7-45.1-23.4-1.6-.4-4,.4-5.4,1.5-15.8,12.5-32.2,24.2-50.8,31.8-9.8,4-14.5,10.3-17.5,19.5-2.8,8.7-4.6,17.4-3,27.2Z" fill="#000" stroke-width="0"/>
    <path d="M742.2,676.4c.8-1.3,1.4-2.3,2-3.3,7.9-11.7,19.1-13.8,30.6-5.7,12.8,9.1,22.1,21.3,28.2,35.4,2.3,5.3,1.3,12.6,0,18.6-4.9,20.5-15.8,37.5-32.5,50.5-10,7.8-21.5,10.4-33.9,8.9-26.3-3.1-49.3-13.8-69.3-31.1-2.6-2.2-4.3-4.7-2.9-8.5,8.1-22,18.9-42.3,36.7-58.1,13.5-11.9,24.1-13.5,41.1-6.8ZM671.5,746.7c2.3,2.2,3.8,3.8,5.5,5.1,17.9,12.8,37.8,20.7,59.8,22.7,8.3.8,16.4,0,24-4.1,15.8-8.6,25.9-22.2,32.7-38.3,2.9-7,4.7-14.4,7.3-22.6-11.5,2.6-21.9,7.9-29.8-4-2.9,4.3-5.6,8.6-8.5,12.7-6,8.6-14.5,12.3-24.7,12.4-6.6,0-10.1-3.1-11-9.7-.2-1.3-.2-2.6-.3-3.9-.4-.5-.8-1-1.2-1.5-10,24-32.8,24.8-53.9,31.1ZM743.8,683.4c-21-7.9-32.9-5.4-47.5,11.9-7.4,8.8-13.2,19.1-19.2,29.1-3.1,5.1-4.8,11-7.6,17.6,13.6-2.7,26.5-4.1,36.2-12,9.3-7.7,16.6-17.7,25.4-27.3.1,5,0,9.6.4,14.1.7,8,4.9,10.6,12.3,7.8,8.4-3.3,15.1-8.6,19.5-16.6,2.7-5,5.9-9.7,9.2-15,1.3,6,1.3,13.2,8.3,14.2,5.6.8,11.5-1,18.6-1.8-2.4-4.3-3.8-7-5.4-9.6-6.3-9.7-13.2-18.9-23.5-24.8-8.9-5.1-15.9-3.5-22,4.8-1.7,2.3-3.1,4.9-4.8,7.6Z" fill="#000" stroke-width="0"/>
    <path d="M396.1,326.3c1.9,11.3-.9,21.6-4.3,31.7-2.4,7.2-4.7,14.4-7.6,21.3-6.8,16.4-3.2,30.9,7.5,44.1,3.1,3.8,6.9,7.1,10,11,1.5,1.9,3,4.8,2.7,7.1-.6,4.8-5,6.5-8.8,3.4-4.2-3.4-7.9-7.5-11.6-11.6-1.9-2.1-3.2-4.9-5-7.2-13.6-16.9-9.9-35-3.7-53.3,2.4-7.2,4.3-14.6,7.5-21.4,7.3-15.8,2.1-28.7-8.4-40.5-13-14.6-29.3-24.8-46.4-33.8-1.5-.8-3-1.6-4.6-2.3-2.8-1.4-5.4-3.1-3.6-6.7,1.7-3.4,4.9-4.5,8.3-2.9,5.3,2.5,10.6,5,15.5,8.1,16.6,10.3,31.8,22.3,43.8,37.9,3.5,4.5,5.9,10,8.8,15Z" fill="#000" stroke-width="0"/>
    <path d="M640.3,315.8c1.5,12.1,3,24.1,4.5,36.2.1,1,.5,2.4,0,3-1.5,2-3.3,3.7-5,5.5-1.4-1.8-3.7-3.5-4-5.5-1.9-11.1-2.1-22.7-5.3-33.3-6.9-23.1-17.6-44.6-34.1-62.8-.7-.8-1.3-1.6-1.7-2.5-1.4-2.9-3.4-6.3,0-8.8,3.3-2.4,5.6.6,7.8,2.8,18,18.6,30.8,40.2,37.8,65.5Z" fill="#000" stroke-width="0"/>
    <path d="M638.2,239.1c.2,1.4,1,3.7.5,5.7-.5,2.1-2.2,3.9-3.4,5.8-1.7-1.5-4.1-2.6-5-4.4-2.7-5.7-4.4-11.9-7.2-17.6-11.1-22.1-25.9-41.6-43.3-59.1-1.4-1.4-2.8-3.3-3-5-.5-4.4,4.4-7.1,8.2-4.2,4.5,3.4,8.6,7.3,12.3,11.6,15.3,18,28.2,37.5,37.9,59.1,1.1,2.3,1.8,4.8,2.9,8.1Z" fill="#000" stroke-width="0"/>
    <path d="M659.6,294.3c-3.6-15.5-5.8-31.2-3.3-47,.9-6,3.7-11.7,5.9-17.4.6-1.5,2-3.1,3.4-3.7,1.7-.7,4-1,5.5-.3.8.4,1.2,3.4.7,4.9-4.6,12-6.8,24.5-6.6,37.3.2,16.8,3.1,32.8,13.1,46.9,2.3,3.2,5.1,6,7.7,8.9,2,2.4,3.8,5.4,1,7.6-1.4,1.1-5.9.8-7.1-.5-4.9-5.6-9.7-11.4-13.3-17.9-3.2-5.8-4.7-12.5-7-18.8Z" fill="#000" stroke-width="0"/>
    <path d="M606.4,744c-.6-2.4-1.8-4.8-1.8-7.2,0-13-.1-26.1.7-39.1,2.1-31.2,6.3-62.2,15.5-92.2,3.5-11.4,9.1-22.1,14.1-33,1.1-2.3,3.6-3.9,5.5-5.8l1.5,1.2c-.7,1.4-1.3,2.9-2,4.3-3.9,7.8-8.1,15.5-11.5,23.5-6.5,15.3.9,27.5,9.5,39.3,1.7,2.3,3.6,4.4,5.4,6.6-.3.5-.6,1.1-.9,1.6-1.7-.8-3.8-1.2-5.2-2.3-6.7-5.5-10.6-12.9-13.4-20.9-.3-.9-.6-1.9-1.4-2.8-9.9,41.6-14.5,83.8-13.4,126.6-.9,0-1.8.2-2.8.2Z" fill="#000" stroke-width="0"/>
    <path d="M568.2,536.3c.8-.5,1.5-1.3,2.3-1.6,16.3-6.1,27.8-18,38-31.3,7.5-9.8,14-20.3,21-30.5.8-1.2,2.4-1.9,3.6-2.8,0,1.5.5,3.4-.1,4.6-11.5,21.5-25,41.4-45.6,55.4-4.3,2.9-9.4,4.8-14.3,6.9-1.4.6-3.1.2-4.7.3,0-.4-.1-.7-.2-1.1Z" fill="#000" stroke-width="0"/>
    <path d="M759.5,808.9c-9.4,2.2-19.2,1-28.7-2.4-1.3-.5-2.2-2.2-3.3-3.3,1.6-.5,3.2-1.5,4.8-1.4,2.7.2,5.4.9,8.1,1.6,14.6,4,26.3-.6,35.9-11.7.6-.6,1-1.6,1.7-1.8,1.7-.7,3.5-1,5.3-1.5-.3,1.7,0,3.7-.8,5-5.4,8-13,13-22.9,15.6Z" fill="#000" stroke-width="0"/>
    <path d="M466.2,470.1c-13.1,3-26.1,3.5-38.9-1.6-.5-.2-1.1-.3-1.4-.6-2-1.9-3.9-3.9-5.9-5.9,2.4.4,4.9.6,7.2,1.4,13,4.2,26.2,4.8,39.6,1.8,2.6-.6,5.4-3.2,7.8.4-2.3,1.4-4.5,2.8-6.8,4.2-.4.2-1,.2-1.5.3Z" fill="#000" stroke-width="0"/>
    <path d="M474.3,485.4c-1.3,1.5-1.9,2.6-2.7,3-9.3,4-15.8,10.6-20,19.8-.4.9-2.1,1.2-3.2,1.8-.4-1.2-1.2-2.5-1-3.6,1-9,13.5-21.3,22.3-21.9,1.2,0,2.5.5,4.7.9Z" fill="#000" stroke-width="0"/>
    <path d="M537.9,440.5c10.4,21.8,20.5,27.2,41.5,22.3,16.3-3.8,22-13.8,21.5-38.5,9-.2,17.9-.5,27-.7,2,9.7.5,18.3-2.5,26.6-10.3,28.4-31,43.6-60.8,46.7-16.9,1.8-33.3,0-48.5-8.1-7.6-4.1-13.8-9.7-17.5-17.6-.8-1.7-.7-5,.5-6.1,11.3-10.8,24.6-18.4,38.9-24.5Z" fill="#fff" stroke-width="0"/>
    <path d="M495.5,461.6c-1.7-9.8.1-18.5,3-27.2,3-9.2,7.7-15.5,17.5-19.5,18.6-7.6,35.1-19.3,50.8-31.8,1.4-1.1,3.8-2,5.4-1.5,16.6,4.7,32.7,10.7,45.1,23.4,3.6,3.6,6.3,8.2,10.3,13.5-50.1-.9-94.2,11.1-132.2,43.1Z" fill="#2e6bd4" stroke-width="0"/>
    <path d="M671.5,746.7c21.1-6.3,43.9-7.1,53.9-31.1.4.5.8,1,1.2,1.5.1,1.3.2,2.6.3,3.9.9,6.6,4.4,9.8,11,9.7,10.2-.2,18.7-3.9,24.7-12.4,2.9-4.2,5.7-8.5,8.5-12.7,7.8,11.9,18.2,6.7,29.8,4-2.6,8.2-4.4,15.6-7.3,22.6-6.8,16.2-16.9,29.7-32.7,38.3-7.5,4.1-15.6,4.9-24,4.1-22-2-41.9-9.9-59.8-22.7-1.7-1.2-3.2-2.9-5.5-5.1Z" fill="#2e6bd4" stroke-width="0"/>
    <path d="M743.8,683.4c1.7-2.7,3.1-5.3,4.8-7.6,6-8.3,13-9.8,22-4.8,10.3,5.9,17.2,15.1,23.5,24.8,1.6,2.5,3,5.2,5.4,9.6-7.1.8-13.1,2.6-18.6,1.8-7-1-7-8.3-8.3-14.2-3.3,5.3-6.4,10-9.2,15-4.4,8.1-11.1,13.3-19.5,16.6-7.3,2.9-11.6.2-12.3-7.8-.4-4.5-.3-9.1-.4-14.1-8.8,9.6-16.1,19.6-25.4,27.3-9.7,8-22.6,9.3-36.2,12,2.8-6.5,4.6-12.4,7.6-17.6,6-10,11.8-20.2,19.2-29.1,14.5-17.3,26.5-19.8,47.5-11.9Z" fill="#2e6bd4" stroke-width="0"/>
  </g>
</svg>