<?xml version="1.0" encoding="UTF-8"?>
<svg id="Gigafish" xmlns="http://www.w3.org/2000/svg" baseProfile="tiny" version="1.2" viewBox="0 0 1080 1080">
  <g id="body">
    <path d="M661.4,804.5c-68.6,0-158-24.4-239.2-65.3-91.5-46-163.8-108.2-203.8-174.9-.5-.9-1.1-1.8-1.7-2.8l-4.2-6.8-4.9,6.3c-9.8,12.8-24.6,41.2-41.7,74.1-16.7,32.1-35.7,68.4-53.3,96.5-25,39.8-36.9,45.7-41.8,45.7s-2.5-.3-4.2-2.2c-11-12.5-18.7-68.7,6.9-265.9v-.9c.1,0,0-.9,0-.9-15.9-83.6-25.3-148.8-28.1-193.6-3-48.4,2.2-65.6,7-71.5,1.9-2.3,3.7-2.6,5.1-2.6,6.4,0,19.7,7.5,46.3,43.4,19.7,26.5,41.2,61,60.1,91.5,20.2,32.5,37.7,60.5,48.9,72.7l4.6,4.9,3.9-5.5c.4-.6,1-1.4,1.5-2.3,43.3-67.9,119.1-133,213.5-183.2,86-45.8,177.4-73.1,244.5-73.1s79.3,7.9,117.1,23.6c36.7,15.2,70,36.9,98.9,64.5,29.2,27.8,52.2,60,68.3,95.6,16.9,37.3,25.5,76.7,25.5,117,0,78.1-37.7,158.3-103.4,220-64.7,60.7-147,95.5-225.8,95.5Z" fill="#1592ff" fill-rule="evenodd" stroke-width="0"/>
    <path d="M680.9,193.8c39.2,0,77.8,7.8,115,23.2,36.1,15,68.8,36.3,97.2,63.4,28.7,27.3,51.2,58.9,67.1,93.9,16.6,36.6,25,75.2,25,114.8s-9.4,78.6-27.9,116.8c-17.4,35.9-42.9,70.2-73.8,99.2-30.6,28.7-66.6,52.4-104.1,68.6-39.2,16.9-78.9,25.4-118,25.4-67.8,0-156.3-24.2-236.7-64.7-43.2-21.7-82.1-47-115.7-75.1-36.4-30.5-65.3-63.3-85.8-97.6-.5-.9-1.1-1.8-1.7-2.9l-8.4-13.6-9.7,12.7c-10.1,13.2-25,41.8-42.2,74.9-16.7,32-35.6,68.2-53.1,96.1-9.2,14.6-17.3,25.7-24.1,33.1-7.8,8.5-11.8,9.8-12.8,10-.7-.6-3.2-3.5-5.4-13.3-2.4-10.8-3.7-26.4-3.8-46.4-.2-44.9,5.5-112.9,17.1-202.1l.2-1.7-.3-1.7c-17.1-90.4-26.8-159-28.6-203.8-2.1-51.6,6.9-57.4,7-57.4,0,0,0,0,.2,0,.5,0,5,.3,15.2,9.8,7.5,7,16.5,17.5,26.7,31.3,19.5,26.3,41,60.7,59.9,91.1,20.4,32.7,37.9,60.9,49.6,73.5l9.1,9.9,7.9-10.9c.5-.7,1.1-1.6,1.7-2.6,22.1-34.6,52.6-68.4,90.7-100.4,35.5-29.9,76.1-57,120.7-80.7,85.3-45.3,175.7-72.4,241.9-72.4M680.9,182.8c-136.6,0-368.1,110.3-462.7,258.9-.4.7-.8,1.3-1.2,1.9-32-34.6-120.7-209.3-159.4-209.3-23.9,0-28.8,66.7,10.6,274.2-26.9,207.3-19.4,274.3,2.8,274.3,36.5,0,112.6-181.1,141.1-218.4.6.9,1.1,1.8,1.6,2.7,88.6,148.2,311.5,242.8,447.7,242.8s334.7-151.6,334.7-321-149.5-306.2-315.2-306.2h0Z" fill="#000" stroke-width="0"/>
  </g>
  <g id="head">
    <path d="M1016.4,504.7c-6.4-19.7-3.4-36.9,11.2-52.6,12.6-13.6,16.1-30.7,13.7-48.9-2.2-16.3-10.5-29.6-21.8-41.2-1.2-1.3-2-3.4-2.1-5.2-.3-14.3.8-28.7-.6-42.8-3.4-34.5-19.9-62.5-45.3-85.4-19.9-18-43.1-31.3-67.1-43.1-41.8-20.4-86-30.8-132.4-32.3-34.2-1.1-68.1,2.3-101.6,9.3-36.9,7.8-72.5,19.3-105.4,38.3-10.1,5.9-19.8,12.2-28.8,19.3,10.2-1.7,20.3-3.3,30.1-6,18.2-11.1,37.6-19.7,58.1-26.6,44.6-14.9,90.3-22.5,137.4-22.3,42.9.1,84.3,7.9,123.7,25,28.1,12.2,55,26.7,77.9,47.4,25.4,23,40.8,51.2,42.2,86,.5,12.5-.3,25-.8,37.5-.1,2.8.5,4.5,2.6,6.4,10.6,9.5,18.8,20.6,21.5,34.8,3.2,16.6-.7,31.4-12.1,44-11.2,12.5-17.1,26.7-15.6,43.7,0,.5,0,1-.1,1.7h-10.6c-.4-10.8-1.2-21.4-10.5-29.3,3.3-.7,6.1-1,8.7-2,1.1-.4,1.7-2.3,2.5-3.5-1.2-.1-2.5-.6-3.6-.2-10.2,3-19.9.9-29.5-2.3-13.4-4.6-25.3-11.4-33.2-23.8-.2-.3-.6-.5-.9-.7q-2.6,2.8,7.6,15c-16.7,6.6-30.3,17.9-43.4,29.8-.4-.2-.9-.4-1.3-.6,2.6-8.8,5.2-17.6,8.3-27.7-1.9,1.4-3.5,2-4,3-6.4,13.4-9.8,27.1-4.9,41.9,2.2,6.6,5.7,12.2,11.3,16.4,14.8,11.1,19.3,26.2,17.2,43.8-.8,6.6-3.5,13.1-3.9,19.7-.8,10.6-1,21.4-.5,32.1.7,14.7,2.3,29.3,3.7,44,.7,6.7-1.5,11.6-7.2,15.4-6.5,4.3-13.2,7.7-20.9,9.2-6.2,1.2-11.3-.5-15.6-5.1-7.8-8.2-15.4-16.5-23.6-24.2-4.3-4.1-9.4-7.6-14.6-10.5-5.1-2.9-9.5-2.2-12.2.8-2.8,3.1-3,8,0,12.7,1.8,2.9,4.4,5.3,6.6,7.9.6-.3,1.2-.6,1.8-1-.6-1.5-.9-3.2-1.8-4.6-1.3-2.1-3.3-3.8-4.3-6-.7-1.5-.9-4.1,0-5.2.9-1.1,3.8-1.8,5.1-1.2,4.3,2,8.9,4.1,12.2,7.2,7.8,7.3,15,15.3,22.4,23.1,2,2.1,4.2,4,6,6.2,5.1,6.1,11.6,6.7,18.7,4.9,10.9-2.7,20.4-8.1,28.3-16.1,1.7-1.8,3.1-4.8,3-7.2-.6-12.3-1.8-24.7-2.8-37-.2-2.2-.3-4.3-.5-6.5,7.1,0,11.4,4.7,10.8,12.1-.4,4.9-1.8,9.7-2.2,14.7-.2,2.6,0,5.6,1.1,7.8,8.7,17.3,12.3,35.5,11.2,54.7,0,1.5.2,3.1.3,4.6.5,0,.9,0,1.4.1.4-1.7,1-3.4,1.1-5.1,1.6-18.4-1.9-35.9-9.9-52.4-2-4.1-2.4-7.9-1.1-12.2,1.1-3.9,1.9-8,2.3-12.1.9-9.4-3.6-15.2-12.8-17.2-.8-.2-1.6-.3-2.9-.6,1-13.2-1.6-26.5,2.3-39.7,2.2-7.3,2.9-15,4.3-22.6,12.3,7.9,26.2,7.9,40.1,7.4,0-.5.2-1,.2-1.5-1.5-.1-2.9-.4-4.4-.3-12.1.3-23.6-1.7-33.7-8.8-1.6-1.1-2.7-2.8-4.1-4.3.3-.3.5-.7.8-1,2.9.4,5.9.9,8.8,1.3,23.8,3.5,44.7-6.2,55.8-25.8.9-1.7,2-3.4,2.5-5.2,1-3.8,3-3.5,6.1-2.6,7.9,2.3,13,6.3,15.1,15.1,3.1,12.8,8,25.1,12.2,37.6,5.9,17.4,2.4,29.7-12.5,41.6-8.9,7.1-18.6,13.2-27.6,20.2-15.4,12.1-26.4,27.4-29.7,47-1.6,9.3-1.9,18.9-1.9,28.3,0,28.6.2,57.2.8,85.9.2,11,1.8,21.9,2.6,32.9.5,7,3.6,12.3,8.5,17.2,8.2,8.2,15.3,17.4,19.9,28.1,3,6.9,4.8,14.1,2.5,21.6-3.1,10.2-11.4,14.8-20.6,17.9-13.5,4.5-27.5,4.7-41.2,4,.9-10.6,2.2-20.9,2.4-31.3.2-12.1-3.1-23.2-13.6-30.8-6.2-4.5-13.4-6.6-20.8-7.4-9-.9-18.1-1-27.2-1.1-2.9,0-7.3,0-7.3,3.7,0,3.9,4.4,3,7.2,3.4,11.3,1.6,22.7,2.5,33.7,5.3,13.2,3.4,20.2,12.9,19.7,26.5-.4,11.4-2.7,22.8-4.5,34.2-.3,1.6-2.3,3.2-3.9,4.4-16.4,11.7-35.1,15.6-54.6,12.3-18-3-35.6-8.1-53.2-12.9-33.3-9.2-65.2-21.7-95-39.4-14.3-8.6-27.9-18.3-38.6-31.2-1.7-2-3.2-5-3.2-7.6-1-36-2.2-72-2.3-108.1,0-21.8,1.6-43.7,2.5-65.5.2-5.2,1-10.4,1.6-16.3,20.1,10.5,41.2,14.4,63.6,13.3.4,8.3.6,16.3,1.1,24.2.6,8.6,1.3,17.3,2.3,25.9.3,2.3,1.7,4.6,3,6.6.6.9,2.6,1.8,3.5,1.5,1.2-.4,2.3-2,2.7-3.2.5-1.5.2-3.3,0-4.9-1.2-12.3-2.7-24.5-3.5-36.8-.5-7.8,0-15.6,0-24.1-11,2.9-21.3,3.4-31.5,1.6-29.5-5.3-54-18.7-69.7-45.1-10.9-18.4-10.5-37.7-2.3-57.1,1.8-4.2,4.1-8.1,6.1-12.1,1.3-2.5,2.8-5.4-.3-7.3-3-1.8-5.5.4-7.3,2.8-10.1,13.5-15.2,28.6-14.1,45.5,1.7,26.5,14.8,46.7,35.6,62.3,2.4,1.8,3,3.3,2.7,6.4-2,19.8-4.3,39.6-5.3,59.5-.9,18.3-1.3,36.7-1.1,55.1.2,18.4.9,36.9,2.2,55.3.3,5,.7,10.1,1.1,15.1s.4,9.9,1.5,14.5c1.7,6.8,6.6,12.3,11.6,17s11.6,9.9,17.9,14.3,1.4,1,2.2,1.5c7.6,5.2,15.6,9.8,23.7,14.2,26.2,14.2,53.9,25.1,82.6,32.9,20.1,5.4,39.9,12.8,60.8,14.8,23.6,2.3,45.4-2.7,64.4-17.6,1.4-1.1,3.4-1.7,5.1-1.7,16.2.4,32.1-.3,47.5-6.3,19.8-7.8,29.4-24.7,24.7-44.5-3.4-14.4-11.9-26.1-21.4-37.1-4.1-4.7-9.4-8.5-9.7-15.7-.2-5.5-1.4-10.9-1.5-16.4-.6-37-1.1-74-1.4-111-.2-22.2,8.6-40.4,26.1-54,8.4-6.6,17.4-12.5,26-19,21.4-16.3,26.8-34.4,18.2-59.1-5-14.4-9.5-29-14.2-43.4ZM986.1,495.6c-3.3,13.4-10.9,23.5-23.3,29.8-13.6,7-28.1,6.6-42.7,4.6-.9-.1-2.2-1-2.4-1.8-3.1-10.6-11.3-17.3-18.9-24.4-2.6-2.4-4.7-5.3-7.4-8.4,12.3-6.6,25.1-8.5,38-9.9,2.8,18.8,8.7,26.1,21.3,26.7,16.8.7,21.7-3.6,26.6-24,2.6.9,5.3,1.5,7.5,2.9,1,.6,1.6,3.1,1.2,4.4ZM986.3,487.3c-32.5-8.6-64.3-8.8-95.7,4-3.9-6.3-3.5-10.4,1.5-15.5,10.9-10.9,23.3-19.6,37.2-26.2,3.6-1.7,6.6-1.9,10.3.5,9.8,6.4,20.8,9.7,32.3,11.7,1.9.3,3.9,1.3,5.3,2.6,6.3,6.1,9.5,13.6,9.1,22.9ZM989.1,496.4c0-.3,0-.7,0-1h12.6c.5,2.1.9,4.2,1.4,6.3-4.8-1.8-9.4-3.5-13.9-5.3Z" fill="#000" stroke-width="0"/>
    <path d="M1001.1,491.7h-10.6c-.4-10.8-1.2-21.4-10.5-29.3,3.3-.7,6.1-1,8.7-2,1.1-.4,1.7-2.3,2.5-3.5-1.2-.1-2.5-.6-3.6-.2-10.2,3-19.9.9-29.5-2.3-13.4-4.6-25.3-11.4-33.2-23.8-.2-.3-.6-.5-.9-.7q-2.6,2.8,7.6,15c-16.7,6.6-30.3,17.9-43.4,29.8-.4-.2-.9-.4-1.3-.6,2.6-8.8,5.2-17.6,8.3-27.7-1.9,1.4-3.5,2-4,3-6.4,13.4-9.8,27.1-4.9,41.9,2.2,6.6,5.7,12.2,11.3,16.4,14.8,11.1,19.3,26.2,17.2,43.8-.8,6.6-3.5,13.1-3.9,19.7-.8,10.6-1,21.4-.5,32.1.7,14.7,2.3,29.3,3.7,44,.7,6.7-1.5,11.6-7.2,15.4-6.5,4.3-13.2,7.7-20.9,9.2-6.2,1.2-11.3-.5-15.6-5.1-7.8-8.2-15.4-16.5-23.6-24.2-4.3-4.1-9.4-7.6-14.6-10.5-5.1-2.9-9.5-2.2-12.2.8-2.8,3.1-3,8,0,12.7,1.8,2.9,4.4,5.3,6.6,7.9.6-.3,1.2-.6,1.8-1-.6-1.5-.9-3.2-1.8-4.6-1.3-2.1-3.3-3.8-4.3-6-.7-1.5-.9-4.1,0-5.2.9-1.1,3.8-1.8,5.1-1.2,4.3,2,8.9,4.1,12.2,7.2,7.8,7.3,15,15.3,22.4,23.1,2,2.1,4.2,4,6,6.2,5.1,6.1,11.6,6.7,18.7,4.9,10.9-2.7,20.4-8.1,28.3-16.1,1.7-1.8,3.1-4.8,3-7.2-.6-12.3-1.8-24.7-2.8-37-.2-2.2-.3-4.3-.5-6.5,7.1,0,11.4,4.7,10.8,12.1-.4,4.9-1.8,9.7-2.2,14.7-.2,2.6,0,5.6,1.1,7.8,8.7,17.3,12.3,35.5,11.2,54.7,0,1.5.2,3.1.3,4.6.5,0,.9,0,1.4.1.4-1.7,1-3.4,1.1-5.1,1.6-18.4-1.9-35.9-9.9-52.4-2-4.1-2.4-7.9-1.1-12.2,1.1-3.9,1.9-8,2.3-12.1.9-9.4-3.6-15.2-12.8-17.2-.8-.2-1.6-.3-2.9-.6,1-13.2-1.6-26.5,2.3-39.7,2.2-7.3,2.9-15,4.3-22.6,12.3,7.9,26.2,7.9,40.1,7.4,0-.5.2-1,.2-1.5-1.5-.1-2.9-.4-4.4-.3-12.1.3-23.6-1.7-33.7-8.8-1.6-1.1-2.7-2.8-4.1-4.3.3-.3.5-.7.8-1,2.9.4,5.9.9,8.8,1.3,23.8,3.5,44.7-6.2,55.8-25.8.9-1.7,2-3.4,2.5-5.2,1-3.8,3-3.5,6.1-2.6,7.9,2.3,13,6.3,15.1,15.1,3.1,12.8,8,25.1,12.2,37.6,5.9,17.4,2.4,29.7-12.5,41.6-8.9,7.1-18.6,13.2-27.6,20.2-15.4,12.1-26.4,27.4-29.7,47-1.6,9.3-1.9,18.9-1.9,28.3,0,28.6.2,57.2.8,85.9.2,11,1.8,21.9,2.6,32.9.5,7,3.6,12.3,8.5,17.2,8.2,8.2,15.3,17.4,19.9,28.1,3,6.9,4.8,14.1,2.5,21.6-3.1,10.2-11.4,14.8-20.6,17.9-13.5,4.5-27.5,4.7-41.2,4,.9-10.6,2.2-20.9,2.4-31.3.2-12.1-3.1-23.2-13.6-30.8-6.2-4.5-13.4-6.6-20.8-7.4-9-.9-18.1-1-27.2-1.1-2.9,0-7.3,0-7.3,3.7,0,3.9,4.4,3,7.2,3.4,11.3,1.6,22.7,2.5,33.7,5.3,13.2,3.4,20.2,12.9,19.7,26.5-.4,11.4-2.7,22.8-4.5,34.2-.3,1.6-2.3,3.2-3.9,4.4-16.4,11.7-35.1,15.6-54.6,12.3-18-3-35.6-8.1-53.2-12.9-33.3-9.2-65.2-21.7-95-39.4-14.3-8.6-27.9-18.3-38.6-31.2-1.7-2-3.2-5-3.2-7.6-1-36-2.2-72-2.3-108.1,0-21.8,1.6-43.7,2.5-65.5.2-5.2,1-10.4,1.6-16.3,20.1,10.5,41.2,14.4,63.6,13.3.4,8.3.6,16.3,1.1,24.2.6,8.6,1.3,17.3,2.3,25.9.3,2.3,1.7,4.6,3,6.6.6.9,2.6,1.8,3.5,1.5,1.2-.4,2.3-2,2.7-3.2.5-1.5.2-3.3,0-4.9-1.2-12.3-2.7-24.5-3.5-36.8-.5-7.8,0-15.6,0-24.1-11,2.9-21.3,3.4-31.5,1.6-29.5-5.3-54-18.7-69.7-45.1-10.9-18.4-10.5-37.7-2.3-57.1,1.8-4.2,4.1-8.1,6.1-12.1,1.3-2.5,2.8-5.4-.3-7.3-3-1.8-5.5.4-7.3,2.8-10.1,13.5-15.2,28.6-14.1,45.5,1.7,26.5,14.8,46.7,35.6,62.3,2.4,1.8,3,3.3,2.7,6.4-2,19.8-4.3,39.6-5.3,59.5-2,39.7-15.3,58.7-12.2,98.3.3,4.4,9.9-2.6,10.5,2.6-4.4-1.8-8.3-3.2-12-5.1-18.2-9.2-28.1,3.8-46.4-5.1-10.2-5-24,.7-34.5-3.7-.5-.2-.9-.5-1.4-.7,6.3-11.6,12.7-22.9,18.6-34.5,16.6-32.2,31.7-65,42.4-99.7,2.2-7.1,3.5-14.4,4.9-21.7.4-2.2,1-3.3,3.5-3.4,2.7-.2,5.5-.7,8-1.8,1.4-.6,2.9-2.4,3-3.8.1-1.1-1.7-2.9-3-3.4-3-1-6.1-1.7-9.3-1.9-27.9-1.8-51-14.4-71.8-32-28.4-24-49.1-53.5-59.6-89.3-4.8-16.4-7.9-33.5-9.8-50.5-2.3-19.9-3.3-40-3.2-60.1,0-28.9,3.8-57.3,15.2-84.3,10.1-23.8,24.5-44.5,44.3-61.2,25.7-21.6,55.1-36.6,86.8-47.1,44.6-14.9,90.3-22.5,137.4-22.3,42.9.1,84.3,7.9,123.7,25,28.1,12.2,55,26.7,77.9,47.4,25.4,23,40.8,51.2,42.2,86,.5,12.5-.3,25-.8,37.5-.1,2.8.5,4.5,2.6,6.4,10.6,9.5,18.8,20.6,21.5,34.8,3.2,16.6-.7,31.4-12.1,44-11.2,12.5-17.1,26.7-15.6,43.7,0,.5,0,1-.1,1.7ZM742.2,455.1c-2.5,3-4.4,5.1-6.1,7.3-12.3,15.5-11.2,36.2,2.7,50.2,11,11.1,24.8,15.7,39.9,17.6,25.4,3.2,45.8-4.8,59.5-27.1,5.5-8.9,9.6-18.3,6.6-29.3-3.5-12.9-12.1-22-22.3-29.8-4.1-3.1-8.5-5.8-12.6-8.6,3.7-2.7,7.3-5.1,10.7-7.9.8-.7.8-2.5,1.1-3.7-1.3.3-2.8.3-3.8.9-3.1,2-5.9,4.6-9.1,6.3-25.5,12.9-52.2,21.1-81,20.7-1,0-1.9.9-2.9,1.5.9.6,1.8,1.7,2.8,1.8,4.5.2,9,0,14.5,0ZM878.4,701.8c-11.8-8.7-20.4-9.6-33.2-3.2-17.1,8.5-29.6,22-40.3,37.4-1.9,2.7-1,4.9.5,7.2,11.9,17.5,27.5,30.4,47.3,38.2,9.3,3.7,18.7,4.1,28.1,0,15.6-6.7,27.5-17.6,35.5-32.5,2.3-4.3,4.5-9.8,3.9-14.4-1.8-12.2-6.5-23.5-14.6-33.2-7.2-8.7-16.3-9.3-24.8-1.9-.7.6-1.4,1.3-2.3,2.1ZM682.2,360c-1.2-4.5-1.9-9.2-3.7-13.4-6.1-14.5-15.3-26.9-26.1-38.3-3.2-3.4-6.8-6.4-10.4-9.4-2.3-2-5-1.8-7,.5-2.1,2.4-.5,4.3,1.4,5.9,1,.9,2.1,1.8,3.1,2.7,11.4,10.5,21.9,21.7,29,35.6,5.7,11.3,7.1,22.4-1.8,33.1-3.8,4.6-6.8,10-10.2,15-8.5,12.9-15.1,26.1-8,42,.9,2.1,1.3,4.5,2.4,6.6,2,3.9,4.1,7.8,6.6,11.3,2.3,3.1,6,2.7,7.5-.8.7-1.7.1-4.2-.7-6-1.6-3.6-3.8-7-5.5-10.6-5.6-12.5-5.4-24.4,3.2-35.7,3.7-4.8,7-9.9,10.3-15,4.7-7.2,9-14.6,9.8-23.7ZM873.3,401.9c-.2-21-5.7-40.3-15.9-58.4-1.2-2.2-2.4-4.9-5.5-3.8-3.2,1.2-2.3,4.2-1.9,6.8.1.8.4,1.6.8,2.3,9.1,17.4,12.9,36.2,13.5,55.5.3,8.9-2,17.9-2.7,26.9-.1,1.6,1.3,3.4,2,5.1,1.7-1,3.5-2,5-3.2.5-.4.5-1.5.6-2.3,1.3-9.6,2.6-19.3,3.9-28.9ZM887.4,342c-.2-2.8-.3-4.8-.6-6.9-3.1-18.7-9.1-36.5-17.3-53.5-1.9-4.1-4.4-8-7.1-11.5-2.4-3-6.7-2-7.2,1.6-.2,1.4.5,3.2,1.3,4.5,9.9,17.1,17.4,35.2,21.4,54.6,1,4.9,1.1,10.1,2,15.1.3,1.6,1.9,3,2.9,4.4,1.3-1.2,3-2.3,3.8-3.8.8-1.5.6-3.5.7-4.5ZM892.7,389.2c.5,5.3.3,10.8,1.6,16,1.5,5.7,4,11.3,6.6,16.6.6,1.3,4,2.5,5.4,1.9,2.6-1.1,1.9-3.8.8-6.1-1.4-2.8-3.1-5.6-4.2-8.5-4.8-12.9-3.8-25.9-.5-39,2.5-10,6.8-19.1,12.7-27.5.7-1,1-3.4.5-3.9-1-.9-2.9-1.1-4.4-.9-1.2.2-2.6,1.1-3.4,2.1-2.9,4-6.2,7.8-8.1,12.3-5.2,11.7-6.7,24.3-7.1,37.1ZM759.5,726.3c.7.1,1.5.2,2.2.4,8-33.4,20.1-65.1,36.3-95.3.4.9.4,1.7.5,2.4.5,6.8,2,13.3,6.1,19,.9,1.2,2.3,1.9,3.5,2.9.3-.3.7-.7,1-1-1-2.1-2-4.1-2.8-6.2-4.3-10.9-7.5-21.8.7-32.3,4.3-5.5,9.1-10.6,13.7-15.8.8-1,1.6-2,2.4-2.9l-.9-1.2c-1.9,1.1-4.2,1.8-5.5,3.4-6.1,7.4-12.7,14.5-17.7,22.6-13.2,21.3-22.9,44.4-30.9,68.2-3.3,9.9-5.9,20-8.6,30.1-.5,1.9,0,4,0,6ZM772.5,557.8c0,.3,0,.6,0,.9,1.2.3,2.5.9,3.7.8,4.2-.6,8.5-1.1,12.5-2.5,18.8-6.6,33.4-19.2,46.7-33.6.7-.8.7-2.3,1-3.5-1.1.5-2.5.7-3.4,1.4-7.5,6.4-14.7,13.2-22.5,19.3-10.6,8.2-22,15.1-35.8,16.5-.7,0-1.4.5-2.1.7ZM864.7,807.9c8.2,0,15.1-2.3,20.9-7.4.9-.8,1.1-2.4,1.7-3.7-1.5,0-2.9,0-4.4,0-.6,0-1.2.7-1.7,1.1-9.7,6.6-19.7,7.8-30.2,1.7-1.9-1.1-3.8-2.2-5.9-2.9-1.2-.4-2.7,0-4,.1.6,1.1,1,2.6,1.9,3.2,6.7,4.6,14,7.5,21.7,7.8ZM707,485.7c.4,0,.9.2,1.2,0,2.1-.6,4.1-1.2,6.2-1.8-1.1-3.3-3.8-1.8-5.9-1.9-11-.4-21-3.6-30.3-9.5-1.6-1.1-3.5-1.7-5.3-2.5,1.1,1.9,2.2,3.9,3.4,5.8.2.3.6.5,1,.8,8.9,6.6,19,8.8,29.8,9.2ZM710.1,499.1c-1.6-.8-2.5-1.5-3.5-1.7-6.9-1.3-19.1,5.6-21.7,12.4-.3.9,0,2,0,3,1-.2,2.4-.1,2.9-.7,5.1-6.3,11.5-10,19.5-11.2.7-.1,1.4-.9,2.7-1.8Z" fill="#1592ff" stroke-width="0"/>
    <path d="M890.6,491.3c-3.9-6.3-3.5-10.4,1.5-15.5,10.9-10.9,23.3-19.6,37.2-26.2,3.6-1.7,6.6-1.9,10.3.5,9.8,6.4,20.8,9.7,32.3,11.7,1.9.3,3.9,1.3,5.3,2.6,6.3,6.1,9.5,13.6,9.1,22.9-32.5-8.6-64.3-8.8-95.7,4Z" fill="#2e6bd4" stroke-width="0"/>
    <path d="M929.3,485.6c2.8,18.8,8.7,26.1,21.3,26.7,16.8.7,21.7-3.6,26.6-24,2.6.9,5.3,1.5,7.5,2.9,1,.6,1.6,3.1,1.2,4.4-3.3,13.4-10.9,23.5-23.3,29.8-13.6,7-28.1,6.6-42.7,4.6-.9-.1-2.2-1-2.4-1.8-3.1-10.6-11.3-17.3-18.9-24.4-2.6-2.4-4.7-5.3-7.4-8.4,12.3-6.6,25.1-8.5,38-9.9Z" fill="#fff" stroke-width="0"/>
    <path d="M989.1,495.4h12.6c.5,2.1.9,4.2,1.4,6.3-4.8-1.8-9.4-3.5-13.9-5.3,0-.3,0-.7,0-1Z" fill="#1592ff" stroke-width="0"/>
    <path d="M742.2,455.1c-5.5,0-10,.1-14.5,0-.9,0-1.8-1.2-2.8-1.8,1-.5,1.9-1.5,2.9-1.5,28.9.3,55.6-7.9,81-20.7,3.3-1.7,6-4.3,9.1-6.3,1-.7,2.5-.6,3.8-.9-.3,1.3-.3,3.1-1.1,3.7-3.4,2.8-7,5.2-10.7,7.9,4.2,2.8,8.6,5.5,12.6,8.6,10.2,7.8,18.8,16.9,22.3,29.8,3,10.9-1.1,20.4-6.6,29.3-13.7,22.2-34.1,30.3-59.5,27.1-15.1-1.9-28.9-6.6-39.9-17.6-13.9-14-15.1-34.8-2.7-50.2,1.8-2.2,3.6-4.4,6.1-7.3ZM768.6,477.4c-12.3,1.8-24.2,4.9-35.1,11-1.1.6-1.9,3.2-1.6,4.7,1.2,6.8,4.9,12.5,9.9,17.2,10.1,9.4,22.5,14.1,35.9,16.2,23.7,3.7,42.8-3.9,56.6-23.7,4-5.8,7-12.1,7.4-20-7.1-1.7-14.1-3.3-21-5-4.6,19.2-11.1,25.8-24.5,25.4-17.2-.5-24-6.7-27.6-25.7ZM731.5,485.1c35.9-17,72.5-17.2,111.1-6.3-2-4.9-3.2-9-5.2-12.6-7.1-12.3-18.2-20.3-30.2-27.3-1.1-.7-3.2-.5-4.5,0-14.8,6.5-29.9,12.1-45.9,14.2-8.4,1.1-13.3,5-17.5,11.5-4,6.2-7.2,12.5-7.8,20.4Z" fill="#000" stroke-width="0"/>
    <path d="M878.4,701.8c.9-.8,1.5-1.5,2.3-2.1,8.5-7.4,17.6-6.8,24.8,1.9,8,9.6,12.8,21,14.6,33.2.7,4.5-1.6,10.1-3.9,14.4-8,14.9-19.9,25.8-35.5,32.5-9.3,4-18.8,3.6-28.1,0-19.7-7.8-35.3-20.8-47.3-38.2-1.5-2.3-2.4-4.5-.5-7.2,10.7-15.4,23.3-28.9,40.3-37.4,12.9-6.4,21.4-5.5,33.2,3.2ZM809.3,741.8c1.4,2.2,2.2,3.7,3.3,5.1,11.3,13.6,25,23.7,41.6,29.8,6.3,2.3,12.7,3.4,19.4,1.7,14-3.4,24.6-11.9,33.2-23,3.7-4.8,6.6-10.2,10.3-16-9.5-.3-18.6,1.6-22.2-9.2-3.1,2.7-6.1,5.5-9.2,8.1-6.4,5.4-13.7,6.5-21.7,4.6-5.1-1.3-7.2-4.5-6.5-9.8.1-1,.3-2,.5-3.1-.2-.5-.4-.9-.6-1.4-12.6,16.5-30.5,12.5-48.1,13.1ZM878.3,707.6c-14.7-10.4-24.4-10.9-39.2-.5-7.6,5.3-14.2,12.1-20.8,18.6-3.4,3.3-6,7.6-9.5,12,11.1.7,21.4,2.3,30.5-1.9,8.8-4,16.5-10.3,25.3-15.9-.9,3.9-1.9,7.4-2.6,11-1.1,6.4,1.7,9.2,7.9,8.5,7.2-.8,13.4-3.6,18.5-8.9,3.1-3.3,6.6-6.3,10.2-9.7-.2,4.9-1.7,10.5,3.5,12.7,4.2,1.8,9.1,1.6,14.8,2.5-1-3.8-1.5-6.2-2.2-8.5-2.9-8.8-6.3-17.3-13.1-24-5.9-5.7-11.6-6-18-.8-1.8,1.5-3.4,3.2-5.3,4.9Z" fill="#000" stroke-width="0"/>
    <path d="M682.2,360c-.9,9.1-5.1,16.5-9.8,23.7-3.3,5.1-6.6,10.2-10.3,15-8.6,11.3-8.8,23.2-3.2,35.7,1.6,3.6,3.9,6.9,5.5,10.6.8,1.8,1.3,4.4.7,6-1.5,3.6-5.2,4-7.5.8-2.6-3.5-4.6-7.4-6.6-11.3-1.1-2.1-1.4-4.5-2.4-6.6-7.1-15.9-.5-29.1,8-42,3.3-5,6.3-10.4,10.2-15,8.9-10.7,7.5-21.8,1.8-33.1-7.1-14-17.6-25.2-29-35.6-1-.9-2-1.9-3.1-2.7-1.9-1.6-3.5-3.5-1.4-5.9,2-2.3,4.7-2.5,7-.5,3.6,3,7.2,6,10.4,9.4,10.8,11.3,20,23.8,26.1,38.3,1.8,4.2,2.5,8.9,3.7,13.4Z" fill="#000" stroke-width="0"/>
    <path d="M873.3,401.9c-1.3,9.6-2.6,19.3-3.9,28.9-.1.8-.1,1.9-.6,2.3-1.6,1.2-3.3,2.2-5,3.2-.7-1.7-2.1-3.5-2-5.1.8-9,3-18,2.7-26.9-.6-19.3-4.5-38.1-13.5-55.5-.4-.7-.7-1.5-.8-2.3-.5-2.6-1.3-5.6,1.9-6.8,3.1-1.2,4.3,1.6,5.5,3.8,10.1,18.1,15.6,37.4,15.9,58.4Z" fill="#000" stroke-width="0"/>
    <path d="M887.4,342c-.2,1.1,0,3.1-.7,4.5-.8,1.5-2.5,2.5-3.8,3.8-1-1.5-2.6-2.8-2.9-4.4-.9-5-.9-10.1-2-15.1-4.1-19.4-11.6-37.5-21.4-54.6-.8-1.3-1.5-3.1-1.3-4.5.5-3.5,4.9-4.6,7.2-1.6,2.8,3.5,5.2,7.5,7.1,11.5,8.2,17.1,14.2,34.8,17.3,53.5.3,2,.4,4.1.6,6.9Z" fill="#000" stroke-width="0"/>
    <path d="M892.7,389.2c.4-12.8,1.9-25.3,7.1-37.1,2-4.4,5.2-8.3,8.1-12.3.7-1,2.2-2,3.4-2.1,1.4-.2,3.3,0,4.4.9.6.5.2,2.9-.5,3.9-6,8.4-10.2,17.6-12.7,27.5-3.3,13-4.3,26.1.5,39,1.1,2.9,2.8,5.7,4.2,8.5,1.1,2.2,1.8,5-.8,6.1-1.4.6-4.7-.6-5.4-1.9-2.7-5.3-5.2-10.8-6.6-16.6-1.3-5.1-1.1-10.6-1.6-16Z" fill="#000" stroke-width="0"/>
    <path d="M759.5,726.3c0-2-.4-4.1,0-6,2.7-10.1,5.2-20.2,8.6-30.1,8-23.7,17.6-46.8,30.9-68.2,5-8.1,11.6-15.2,17.7-22.6,1.3-1.6,3.6-2.3,5.5-3.4l.9,1.2c-.8,1-1.6,2-2.4,2.9-4.6,5.3-9.5,10.3-13.7,15.8-8.2,10.5-4.9,21.5-.7,32.3.8,2.1,1.9,4.2,2.8,6.2-.3.3-.7.7-1,1-1.2-.9-2.7-1.7-3.5-2.9-4.1-5.6-5.6-12.2-6.1-19,0-.8,0-1.6-.5-2.4-16.2,30.2-28.3,61.9-36.3,95.3-.7-.1-1.5-.2-2.2-.4Z" fill="#000" stroke-width="0"/>
    <path d="M772.5,557.8c.7-.3,1.4-.7,2.1-.7,13.8-1.4,25.2-8.3,35.8-16.5,7.8-6,15-12.9,22.5-19.3.9-.8,2.2-1,3.4-1.4-.3,1.2-.3,2.7-1,3.5-13.3,14.3-27.9,26.9-46.7,33.6-4,1.4-8.3,1.8-12.5,2.5-1.2.2-2.5-.5-3.7-.8,0-.3,0-.6,0-.9Z" fill="#000" stroke-width="0"/>
    <path d="M864.7,807.9c-7.7-.2-15.1-3.1-21.7-7.8-.9-.6-1.3-2.1-1.9-3.2,1.4,0,2.8-.5,4-.1,2.1.7,4,1.8,5.9,2.9,10.5,6.1,20.5,4.9,30.2-1.7.6-.4,1.1-1,1.7-1.1,1.4-.2,2.9,0,4.4,0-.5,1.3-.8,2.9-1.7,3.7-5.8,5.1-12.7,7.4-20.9,7.4Z" fill="#000" stroke-width="0"/>
    <path d="M707,485.7c-10.8-.4-21-2.6-29.8-9.2-.3-.2-.8-.4-1-.8-1.2-1.9-2.2-3.8-3.4-5.8,1.8.8,3.7,1.5,5.3,2.5,9.2,6,19.3,9.1,30.3,9.5,2.1,0,4.8-1.4,5.9,1.9-2,.6-4.1,1.3-6.2,1.8-.4.1-.8,0-1.2,0Z" fill="#000" stroke-width="0"/>
    <path d="M710.1,499.1c-1.3.9-2,1.7-2.7,1.8-8,1.2-14.4,5-19.5,11.2-.5.6-1.9.5-2.9.7,0-1-.4-2.1,0-3,2.6-6.7,14.8-13.7,21.7-12.4,1,.2,1.8.9,3.5,1.7Z" fill="#000" stroke-width="0"/>
    <path d="M768.6,477.4c3.6,19,10.3,25.2,27.6,25.7,13.4.4,19.9-6.2,24.5-25.4,7,1.6,14,3.3,21,5-.4,7.9-3.4,14.3-7.4,20-13.8,19.9-32.9,27.4-56.6,23.7-13.4-2.1-25.8-6.8-35.9-16.2-5.1-4.7-8.7-10.4-9.9-17.2-.3-1.5.5-4,1.6-4.7,10.9-6.1,22.8-9.2,35.1-11Z" fill="#fff" stroke-width="0"/>
    <path d="M731.5,485.1c.7-7.9,3.9-14.3,7.8-20.4,4.2-6.5,9.1-10.4,17.5-11.5,16-2.1,31.1-7.7,45.9-14.2,1.3-.6,3.4-.7,4.5,0,11.9,7,23.1,15,30.2,27.3,2,3.6,3.2,7.6,5.2,12.6-38.6-10.9-75.2-10.7-111.1,6.3Z" fill="#2e6bd4" stroke-width="0"/>
    <path d="M809.3,741.8c17.6-.6,35.4,3.5,48.1-13.1.2.5.4.9.6,1.4-.2,1-.4,2-.5,3.1-.7,5.3,1.4,8.5,6.5,9.8,7.9,2,15.3.8,21.7-4.6,3.1-2.6,6.1-5.4,9.2-8.1,3.6,10.8,12.7,8.9,22.2,9.2-3.7,5.8-6.6,11.2-10.3,16-8.6,11.1-19.2,19.5-33.2,23-6.7,1.6-13.1.6-19.4-1.7-16.6-6.1-30.4-16.2-41.6-29.8-1.1-1.3-1.9-2.9-3.3-5.1Z" fill="#2e6bd4" stroke-width="0"/>
    <path d="M878.3,707.6c1.9-1.8,3.5-3.5,5.3-4.9,6.4-5.2,12.1-4.9,18,.8,6.8,6.6,10.2,15.2,13.1,24,.8,2.3,1.2,4.7,2.2,8.5-5.6-.8-10.6-.7-14.8-2.5-5.2-2.2-3.7-7.9-3.5-12.7-3.6,3.4-7,6.5-10.2,9.7-5.1,5.3-11.3,8.1-18.5,8.9-6.2.7-9-2.2-7.9-8.5.6-3.6,1.6-7.1,2.6-11-8.8,5.6-16.5,11.9-25.3,15.9-9.1,4.2-19.4,2.6-30.5,1.9,3.5-4.5,6.1-8.7,9.5-12,6.7-6.5,13.3-13.3,20.8-18.6,14.8-10.4,24.5-9.9,39.2.5Z" fill="#2e6bd4" stroke-width="0"/>
  </g>
  <path id="Fin_Side" data-name="Fin Side" d="M453.8,430.3c11.4,4.7-6.8,33.8-1.6,47.3,15.6,40.5,39.5,27.8,27.6,43.4-20,26-122.7,101.6-151.5,89.9-4.4-1.8-8.8-5.7-13-10.9-14-17.9-25.7-52.8-28.6-82.1-.3-2.9-.5-5.7-.5-8.6v-5.7c0-12,2.3-22.1,7-28.3,19.8-26,131.8-56.7,160.6-45Z" fill="#2e6bd4" fill-rule="evenodd" stroke="#000" stroke-miterlimit="10" stroke-width="4"/>
</svg>