<?xml version="1.0" encoding="UTF-8"?>
<svg id="Gigafish_logo" data-name="Gigafish logo" xmlns="http://www.w3.org/2000/svg" baseProfile="tiny" version="1.2" viewBox="0 0 992.1 992.1">
  <g id="Gigafish_logo-2" data-name="Gigafish logo-2">
    <g>
      <path d="M253.2,582.5c9.6-16.6,18.8-32.4,28-48.2-.4-.3-.7-.6-1.1-.8-4.4,5.5-9.1,10.9-13.2,16.6-14.1,19.9-31.5,36.5-53.2,47.9-21.2,11.2-43.8,19.2-67.9,20.6-29.4,1.7-55.6-7.7-77.9-26.8-33.4-28.8-48.4-66.1-49.6-109.6-1-38.3,8.4-74.4,24.4-108.8,38.9-83,96.3-149.3,177.6-193.4,32.7-17.7,67.2-29.9,105-30.5,37.3-.6,64.4,17.3,84.1,47.7,9.6,14.8,12.1,31.1,6.7,48-13.3,41.3-34.5,78.4-62.6,111.5-4.2,5-8.1,1.4-12,.7,8.5-16,16.8-31.7,25.2-47.5-.7-.4-1.4-.8-2.1-1.2-6.2,9.4-12.4,18.7-18.6,28-3.9,5.7-8,11.3-11.9,17-2,2.8-4.2,3.9-7.7,2.2-5.4-2.5-11.1-4.5-17.4-7,2.2-3.8,4.1-6.9,6.5-10.9-11.5,7.1-23.9,4.8-36.2-5.9-1.9-1.7-3.6-3.8-5.3-5.7-4.5-4.8-3.8-8.6.4-14.1,26-34.4,49.1-70.8,67.2-110.1.6-1.2.7-2.5,1.6-5.3-5.5,1.9-10.2,3.2-14.6,5.1-25.7,11-47.5,27.9-67.2,47.2-58.5,57.4-98.8,125.7-119.8,205-6.2,23.8-9.2,48.1-3.6,72.7,1,4.6,2.7,9,4.5,15.2-16.4-19-16.4-41.4-20.4-62.7-1.8,18.6-1.8,36.8,5.8,55.2-6.7-7.3-11.4-22.2-11.9-36-1.5-33,7.4-63.8,19.2-94.1,4.5-11.4,9.6-22.6,14.8-34.9-1.2.9-1.7,1.1-1.9,1.5-19.3,31.8-36.7,64.4-44.4,101.1-3.8,18.1-4.6,36.6,1.6,54.6,9.2,26.7,30.7,38,58,30.4,21.2-5.9,38.5-18.6,54.3-33.3,17.4-16.2,32.9-33.8,47.6-54.9-16.4,7.7-31.1,15.6-48.3,14.5,9.6-4.8,19.1-9.6,28.6-14.3-.2-.6-.4-1.3-.6-1.9-1.5.2-2.9.2-4.3.6-7,2.3-14,4.5-20.9,7.1-6.2,2.2-11,1.4-13.9-4.3,18.8-8.5,37.7-17,56.6-25.5-.3-.6-.6-1.3-.7-1.9-9.9,3.8-19.8,7.7-29.9,11.3-8.7,3.1-17.5,6.2-26.5,8.5-3.1.8-7.8,0-10.1-1.8-6.3-5.6-11.9-12.2-17.2-19,23.3,1.2,43.1-8.4,63.1-16.6,27-11.1,53.4-23.8,80.7-34.4,23.1-9,27.8-7.2,44.1,15.6,7.3,10.3,6.6,22.3,3,33.2-9.6,29.8-20.4,59.3-31.2,88.6-4.2,11.3-9.9,22.1-15.4,32.9-1.3,2.4-4.3,4.8-7,5.4-19.2,5.1-38.6,9.9-57.9,14.7-1,.3-2,.4-4,.6v.2h0ZM167.2,581.6c-1.7.3-3.4.6-5.1.9-25.8,5.4-48.3-1.7-68.6-17.8-26.5-21-34-50-34-82s8.6-62.9,19.4-93c5.3-15,11.9-29.5,17.9-44.4-.6.5-1.1.8-1.4,1.4-28.3,43-46.1,89.5-46.2,141.7,0,26.6,6.2,51.4,23.8,72.5,25,29.9,65.9,34.4,94.2,20.8Z" fill="#233960" stroke="#233960" stroke-linecap="round" stroke-linejoin="round" stroke-width="6"/>
      <path d="M773.5,572.2c15,2.1,29.9,4.2,44.8,6.3v.4h-31.8c-57.3-.4-114.4,3.2-171.1,11.4-108.7,15.6-215.1,40.6-319,76.8-4.8,1.7-7.6,4.1-9.5,8.7-10.7,26.5-21.4,52.9-32.7,80.7,8.3-2.7,14.8-5.6,21.7-7,15.4-3.1,31-6,46.6-7.7,5-.6,10.5,1.9,15.4,3.9,3.4,1.3,4,4.1,2.4,8.1-7,17.5-13.6,35-20,52.6-1.1,3.1-1.7,4.6-5.6,4.2-29.8-2.8-57.4,6-84.9,15.6-1.8.6-3.7,3-4.4,5.1-15.8,41-27.7,83-32.4,126.7-1.3,11.3-.2,22.9-.2,34.1-17-4.4-28.9-18.4-30-36.4-.5-8.2,0-16.4-1.6-24.8-.8,6.6-1.8,13.3-2.6,19.9-.6,6.8-1,13.7-1.5,20.6-14.9-6.2-21.4-16-21.3-32.1,0-26,5.4-51.2,12.8-76,.6-2.3,1.3-4.5,2.4-8.6-6.1,2.5-11.3,3.8-15.5,6.5-10,6.6-18.1,5.1-26.4-3.2-7.9-7.9-16.6-15-25.9-23.2,7.9-4.7,14.5-9.1,21.4-12.8,18.9-10.1,37.9-20,57-29.7,4.8-2.4,7.8-5.3,9.6-10.5,8.9-26,18.2-51.8,27.3-77.8.6-1.6.9-3.2,1.7-6.3-9.4,3.7-17.7,6.6-25.6,10.2-17.7,8.2-35.4,16.4-52.7,25.2-11.5,5.8-21.3,5.2-31.6-3.3-17.8-14.8-36.5-28.7-54.8-42.9-.8-.6-1.8-1.1-3.6-2.2,18.9-8.5,36.3-16.7,54-24,107.2-44.1,217.7-77.3,331.7-98.8,67.4-12.8,135.1-22.1,203.8-21.8,55.9.4,111.9,2.5,166.6,15.4,19.1,4.5,37.8,11,56.6,16.8,4,1.2,7.6,3.5,12.8,5.9-29.2-2.9-56.6-5.7-84.1-8.5v2.5h0ZM326.1,622.2l-.7-2c-79.7,20.5-158,44.7-228.4,89.2,1.9,0,3.6-.9,5.2-1.7,11-5.6,21.9-11.5,33-16.7,47.6-22.1,97.4-38.3,147.5-53.7,14.6-4.5,28.9-10,43.4-15.1h0ZM342.3,628.1c0-.2-.2-.4-.2-.6,4.3-2.5,8.6-5,13-7.4-.2-.5-.5-.9-.6-1.4-21.2,6.3-42.3,12.8-63.6,19.1.2.8.4,1.6.6,2.4,4-.2,7.9-.4,12.3-.6-1.3,1.6-2.2,2.8-3.9,4.8,31.6-8.8,62.1-17.3,92.5-25.8-.2-.7-.4-1.5-.6-2.3-16.4,4-33,7.9-49.4,11.8h0Z" fill="#233960" stroke="#233960" stroke-linecap="round" stroke-linejoin="round" stroke-width="6"/>
      <path d="M780,185.5c20.2,11.1,33.8,29.3,28.1,54.8-4.1,18.6-11.1,35.9-22.7,51.3-.6.8-1.2,2-2.1,2.5-1.6.8-3.4,1.2-5.1,1.7,0-1.6-.5-3.4,0-4.8,1.9-5,4.1-9.8,5.3-15.2-3.5,6-6.9,12-10.7,18-2.7,4.3-11.9,5.2-15.2,1.6-.6-.7,0-2.6,0-3.9-13.1,3.5-23.7-2.7-33.6-10.2-1.2-.9-.9-5,0-7.1,8.6-19.8,17.5-39.5,26.2-59.3,1-2.3,1.3-4.9,2.4-9-7.2,2.8-13.2,4.8-18.8,7.5-26.6,12.9-48.5,31.9-66.7,54.9-32.7,41.5-55.9,87.9-68.9,139.3-4.5,17.8-6.6,36.1-2,55.7-9.4-8.2-12.6-17.5-13.1-28.4-1.3-21.8,3.8-42.5,9.8-63.2.6-2,1.1-4,1.7-6.3-.7.2-1,.2-1.1.3-12.6,26.3-24.6,52.6-19.9,83,.4,2.1.8,4.2,1.5,6.3,5.1,15.3,14.3,21.3,29.7,16.6,9.5-2.9,18.8-8,26.7-14,19.9-15,35.2-34.5,49.9-54.5.7-1,1.2-2.2,1.6-2.8-21-4.4-35.7-16.5-47.6-34.3,7.2-.6,13.9,0,19.8-1.9,10.2-3.4,20.1-7.9,29.7-12.9,11.8-6,22.9-13.3,34.7-19.1,8.6-4.2,17.9-7.6,27.3-9.9,12.7-3.2,23,3.5,27.3,15.8,4,11.5,2.7,23-.9,33.9-10.7,32.5-21.9,64.8-33.3,96.9-6.3,17.7-13.8,35-20.8,52.5-2.8,7.3-4.6,7.6-15,3.8-6.2-2.3-2.5-6.4-1.7-9.7,1.4-5.3,3.3-10.6,4.3-16.3-4.3,6.7-8.7,13.3-12.8,20.1-2,3.4-4.3,4.8-8.4,4.2-7.5-.9-15.1-1.2-24.1-1.8,10.3-20.7,20.2-40.5,30-60.4-.2,0-.5-.3-.6-.4-7.9,10.2-15.6,20.6-23.7,30.7-9.9,12.3-21.5,22.9-36.6,28.3-26,9.4-49.5,2.1-71.2-12.7-23.8-16.3-34.9-40-38.9-67.8-5.3-36.7,2.4-71.6,16.4-105.3,19.1-45.7,45.7-86.2,84.1-118,25.5-21.1,54-36.7,87.1-42.8,20.8-3.9,50.1,0,71.7,12h0ZM565.9,338c0-.2-.2-.3-.3-.5-3.5,7.6-7.3,15.1-10.5,22.8-11.2,27.8-18.6,56.3-12.6,86.6,3.4,17.1,10.7,32.1,26.9,40.8,7.6,4.1,13.1,4.8,19.4,2.7-21.2-5.4-31.1-20.8-35.7-40.5-4.6-19.5-4-39.2-.4-58.6,3.3-17.9,8.7-35.6,13.1-53.3h0ZM740.6,425.5c-.6-.2-1-.4-1.6-.6-3.6,9.6-7.2,19.3-10.7,28.9.6.2,1.2.5,1.7.6,3.5-9.6,7-19.4,10.5-29h0Z" fill="#233960" stroke="#233960" stroke-linecap="round" stroke-linejoin="round" stroke-width="6"/>
      <path d="M689.6,913.9c-.2,3.9-.4,7.7-.6,11.5-10.8-1.3-20.3-10.4-20-20.8.5-16.2,1.7-32.3,3.4-48.5.6-6.2.3-10.6-4.6-15.3-7.4-7.4-13.7-16.1-21.5-25.4,15.9-11.3,30.6-22.7,46.2-32.5,44.8-28.3,93.6-47.8,144.5-62,6.4-1.7,9.4-4.7,11.4-11,15.9-48.5,32.2-96.9,48.8-146.2,8.6,1.7,16.4,3,24.1,5,14,3.5,27.5,8.1,38.8,17.5,9.5,7.9,10.9,12.8,6.9,24.4-12.7,37-25.4,74-38.4,111-.7,2-4,4.6-5.8,4.4-15.5-1.3-21.6,6.7-26.1,20.9-13,40.5-24.1,81.4-26.2,124.1-1.1,22.5-.8,45.1,6.2,66.9,1.7,5.2,4.1,10.3,7,17.3-9.6-5.1-18.1-9-26.1-14-2.6-1.6-4.2-5.4-5.4-8.5-7.3-20.2-7.6-41.2-5.7-62.3,1.8-19.9,5.3-39.8,7.8-57.9-14,19.1-20.9,76.6-13.1,118.3-14-2.3-23-12.3-24-26.6-2.4-35.9,1.6-71.4,9.4-106.5.5-2,.7-4.1,1.4-7.3-4.8,1.4-8.8,1.9-12.3,3.6-20.7,9.5-41.2,19.2-61.7,28.8-5.3,2.5-8.1,6.6-9.3,12.3-6,27.5-12.1,54.8-18.1,81.5-5-26.4-.6-53.2,6-80.4-3.6-1.4-6.4-1.7-7.8,2.6-9.9,30.5-16,61.5-11.9,93.9.4,2.6.9,5.1,1.5,7.7-11.2-2.6-14.1-5.7-24.8-26.5l.3.2h0ZM726.7,824.6c17.7-8.7,35.4-17.4,53.1-26.1-19.5,5.2-37.5,13.5-53.1,26.1Z" fill="#233960" stroke="#233960" stroke-linecap="round" stroke-linejoin="round" stroke-width="6"/>
      <path d="M927.3,419.5c-.8,1.7-2.1,3.4-2.4,5.1-4.1,30-4.9,60.1.8,89.9,2,10.7,5,21.2,7.5,31.8-12.6-3.5-22.2-10.3-25.2-24.3-2-9.9-4.2-19.8-6.4-29.8v35c-8.9-5.9-16.4-13.3-17.7-23.9-2.1-16.3-2.5-32.7-3.6-49.1-.2-3.4,0-6.9,0-11.8-10.3,4.6-19.9,8.7-29.5,13.2-5.9,2.8-11.5,6.1-17.2,9.3-4,2.3-7.5,2.1-11.1-1.2-4.4-4-9.3-7.7-14.1-11.7-9.1,29.8-20.3,58.7-21.5,90.1-13.4-3-14.5-4.5-17.6-23.9-1.9,5.7-3.4,9.8-5.1,14.6-4-1.6-8.1-2.6-11.3-4.8-2.2-1.6-5-5.1-4.6-7.3,1.9-13.9,3.5-27.9,7.3-41.3,13.6-48.6,34.5-94.3,57.4-139,23-44.9,48.1-88.6,72.3-132.9,2.4-4.3,4.6-8.7,7.4-14.1,20.1,4,41.5,5.6,58.2,20.8,7,6.3,9,14.5,8.1,23.6-2.5,25.3-5.1,50.4-7.2,75.7-1.3,15.8-1.6,31.6-1.9,47.4,0,4.9-1.7,7.1-6.4,8.7-13,4.5-25.7,9.8-38.6,14.8.2.6.5,1.3.6,1.9,2.1-.6,4.1-1.3,6.2-1.9,18.7-6.2,37.5-12.1,57.3-13.4,4.5-.3,7.5.9,9.4,5.1,4.2,9.5,8.5,18.8,13,28.9-11.1,2.6-21.1,4.7-31.1,7.2-14.1,3.5-14.6,3.7-14.8,18.1-.2,17.1.6,34.2,1.1,51.3,0,2.8.4,5.5.6,8.4-.7,0-1.4.2-2.1.2-1.8-17.4-3.8-34.6-5.6-52-2.9,16.9-2.3,33.9,1.1,50.8-.6,0-1.3.2-2,.4-2.3-11.3-5.1-22.5-6.9-33.9-1.7-11.5-2.2-23.2-3.2-34.7-.5-.4-1-.7-1.5-1v-.4h0ZM855,353c-.4-.2-.6-.3-1-.5-9,18.1-18,36.2-27,54.3-.3,0-.6-.3-.9-.4,4.9-13.5,9.7-27,14.7-40.5-.6-.3-1.3-.6-1.9-.9-11.1,22-22.2,43.8-33,65.2,23.8-10.2,47.6-20.4,71.5-30.4,4.2-1.7,6.3-4.1,7.2-8.7,5.6-30.9,11.5-61.6,17.3-92.4,1.3-6.7,2.6-13.4,4.2-21.9-7.6,15.7-14.1,29.9-21.3,43.6-14.3,27.2-29,54.2-43.6,81.2-1.2,2.2-3.2,4-4.8,6-.9-.6-1.7-1.2-2.7-1.7,7.2-17.6,14.3-35.3,21.5-53h0Z" fill="#233960" stroke="#233960" stroke-linecap="round" stroke-linejoin="round" stroke-width="6"/>
      <path d="M660.6,710.7c-6,8.7-11.9,17.5-18.1,26.1-2.9,4.1-9.6,4-12.8,0-.8-1-.4-3.1-.5-5-7.7,1.7-15.1,0-21.9-4.2-6.6-4.2-7.3-7.5-3.8-14.6,9-18,18.4-35.8,26.8-54.1,3.7-7.8,5.5-16.5,8.5-26-14.2,3.1-25.3,8.5-35.1,16.1-16.1,12.4-28.5,27.8-36.2,46.8-10.8,26.6-6.9,51.1,13.1,72.1,7.7,8.2,16.6,15.2,25,22.7,6.1,5.5,12.3,10.9,18.2,16.6,15.8,15.4,22.6,34.1,18.5,56-3.2,16.9-8.3,33.3-16.7,48.2-2.6,4.6-5.8,8.8-9.5,12.8,3.9-9.5,7.6-18.9,11.5-28.4h-.6c-8.5,12.3-16.8,24.7-25.3,37-.7-.5-1.5-.8-2.3-1.3,12.1-16.5,20.8-34.5,23.2-56.6-1.5,2.2-2.2,3.2-2.8,4.2-.7,1.4-1.3,2.8-1.8,4.1-9.7,21.7-22.8,40.6-42.2,55-48.5,35.9-104.8-2.1-113.2-41.4-4.4-20.9-5-41.2,1.4-61.5,3.7-11.8,7.4-23.5,11.7-36.7,13.2,6,26.5,10.8,38.5,17.7,12.9,7.4,13.9,13,9,26.9-8.2,23.2-8.8,30.5-7,61.9-5.1-7.7-10.2-15.4-15.3-23.2h-.8c2.2,6.5,4.4,13,6.6,19.5l-1.4.8c-3.4-5.5-7.4-10.7-10.1-16.6-2.8-5.9-4.3-12.4-6.5-19.3-3.6,15.3,2,31.8,12.7,38.8,11.5,7.5,26.4,6.7,38.9-2.8,23.3-17.8,34.2-42.5,37.3-70.9,1.5-13.4-3.3-25.6-12.4-35.2-14-14.5-28.7-28.3-43.4-42.1-23.2-21.6-28.5-44.1-16.5-73.4,20-49.3,74-81.4,126.8-75.1,18.4,2.2,34.4,9.4,47.2,23.4,13.3,14.8,16.8,31.1,10.7,49.9-7.5,23.2-20.5,43.4-35.7,62.2-1.3,1.6-4.7,1.5-7.1,2.1,0-2.4-.8-5.3.2-7.2,4.5-8.5,9.5-16.9,14.2-25.3-.3-.3-.6-.6-.9-.8l-.2.5h0ZM499.4,920.5c10.6,11.8,23.6,14.5,38.2,10.9,13.1-3.2,21.8-11.9,26.9-24.3-19.3,16.7-39.9,25.8-65.1,13.3h0Z" fill="#233960" stroke="#233960" stroke-linecap="round" stroke-linejoin="round" stroke-width="6"/>
      <path d="M469.5,188.8c20.3,6,40,11.7,59.5,17.7,3.6,1.1,6.9,3.6,9.9,6,9.2,7.2,10.7,12.8,6.5,23.8-17,44.9-34.6,89.6-51.1,134.8-14.6,40.3-26.4,81.6-31.9,124.3-1.4,10.9-1.8,21.9-2.8,33.8-3.4-37.1,2.2-72.5,9.3-107.8-10.4,32.2-16.7,65.2-17.6,99.1-4.4-38.5,2.4-76,11.2-114.8-14.1,21.7-33.6,90-26,135.5-5.9,1-11.8,1.9-18.6,3-7.2-28.4-4.2-56.5-.9-84.6-11.4,22.8-14.1,47.3-14.2,72.5-8.2-17.1-8.5-35.4-9.3-53.7-4.1,16.3-4.4,32.6-2.9,49.3-.9-7.2-2.5-14.3-2.8-21.5-1.5-42.3,7.2-83.1,17.4-123.7,14.2-56.8,34.8-111.4,54.6-166.5,3-8.5,6.1-17.1,9.6-27.2h0Z" fill="#233960" stroke="#233960" stroke-linecap="round" stroke-linejoin="round" stroke-width="6"/>
      <path d="M422.8,639.5c15.5,5.2,30.7,10.3,45.7,15.5,2.8,1,5.4,2.7,8,4.3,9.4,6.2,10.1,10.4,6.6,20.9-14.7,44.4-29.2,88.7-43.2,133.3-5.3,17.1-8.9,34.7-13.3,52.2-.4,1.6-1,3-2.9,4.3,3.8-23.4,7.6-46.8,11.4-70.2-.5,0-.9-.3-1.4-.4-5.9,23.4-11.9,46.9-16.8,66.8,1.2-25.4,6.5-54.2,14.1-82.5-22,55.1-39.2,110.6-17.4,170.8-2.5-1.4-5.3-3.4-8.5-4.7-18.1-7.5-22.5-22.8-22.2-40.1.2-17.3,1.5-34.5,2.3-51.9,0-1.5,0-2.9-.5-4.5-8.7,24.3-11.4,49.2-9.3,75.5-14.6-8.1-22.7-18.9-22.4-36,.6-29.2,4.9-57.7,12.4-85.8,14.7-55.1,34.1-108.5,54.8-161.6.6-1.4,1.2-2.8,2.7-5.9h0Z" fill="#233960" stroke="#233960" stroke-linecap="round" stroke-linejoin="round" stroke-width="6"/>
      <path d="M688,777.6c11.7-58.5,32.8-113,52.5-168.6,19.5,5.6,39.5,8.4,56.5,20,1.6,1.1,3.1,2.3,4.6,3.6,5.9,5.2,9.1,11,5.6,19.4-7,16.8-13.4,33.7-20,50.7-3.4,8.6-6.3,17.5-10,26-1.2,2.8-3.3,5.8-5.9,7.1-25.7,13.3-51.7,26.3-77.5,39.3-1.5.7-3,1.3-5.7,2.4h0Z" fill="#233960" stroke="#233960" stroke-linecap="round" stroke-linejoin="round" stroke-width="6"/>
      <path d="M960.2,736.9c-10.3,1.9-20.5,4.1-30.9,5.5-6.2.8-8.1,4.1-9.6,9.5-12.5,45.7-24.3,91.6-27.5,139.2-.7,0-1.5-.2-2.2-.3,2.9-29.9,5.9-59.8,8.6-87.5-9.3,29-14.9,60.9-15.1,93.7,0-17.9-1-35.8.2-53.6,2.2-32.9,9.6-64.9,17.8-96.7,2.8-10.6,2.8-11.1,13.7-11.9,12.7-.8,25.4-.8,38.2-.9,2.3,0,4.5,1.1,6.8,1.7,0,.5-.2,1-.3,1.5h0Z" fill="#233960" stroke="#233960" stroke-linecap="round" stroke-linejoin="round" stroke-width="6"/>
    </g>
    <g>
      <path d="M234.4,549.7c9.6-16.6,18.8-32.4,28-48.2-.4-.3-.7-.6-1.1-.8-4.4,5.5-9.1,10.9-13.2,16.6-14.1,19.9-31.5,36.5-53.2,47.9-21.2,11.2-43.8,19.2-67.9,20.6-29.4,1.7-55.6-7.7-77.9-26.8C15.7,530,.8,492.6-.5,449.1c-1-38.3,8.4-74.4,24.4-108.8,38.9-83,96.3-149.3,177.6-193.4,32.7-17.7,67.2-29.9,105-30.5,37.3-.6,64.4,17.3,84.1,47.7,9.6,14.8,12.1,31.1,6.7,48-13.3,41.3-34.5,78.4-62.6,111.5-4.2,5-8.1,1.4-12,.7,8.5-16,16.8-31.7,25.2-47.5-.7-.4-1.4-.8-2.1-1.2-6.2,9.4-12.4,18.7-18.6,28-3.9,5.7-8,11.3-11.9,17-2,2.8-4.2,3.9-7.7,2.2-5.4-2.5-11.1-4.5-17.4-7,2.2-3.8,4.1-6.9,6.5-10.9-11.5,7.1-23.9,4.8-36.2-5.9-1.9-1.7-3.6-3.8-5.3-5.7-4.5-4.8-3.8-8.6.4-14.1,26-34.4,49.1-70.8,67.2-110.1.6-1.2.7-2.5,1.6-5.3-5.5,1.9-10.2,3.2-14.6,5.1-25.7,11-47.5,27.9-67.2,47.2-58.5,57.4-98.8,125.7-119.8,205-6.2,23.8-9.2,48.1-3.6,72.7,1,4.6,2.7,9,4.5,15.2-16.4-19-16.4-41.4-20.4-62.7-1.8,18.6-1.8,36.8,5.8,55.2-6.7-7.3-11.4-22.2-11.9-36-1.5-33,7.4-63.8,19.2-94.1,4.5-11.4,9.6-22.6,14.8-34.9-1.2.9-1.7,1.1-1.9,1.5-19.3,31.8-36.7,64.4-44.4,101.1-3.8,18.1-4.6,36.6,1.6,54.6,9.2,26.7,30.7,38,58,30.4,21.2-5.9,38.5-18.6,54.3-33.3,17.4-16.2,32.9-33.8,47.6-54.9-16.4,7.7-31.1,15.6-48.3,14.5,9.6-4.8,19.1-9.6,28.6-14.3-.2-.6-.4-1.3-.6-1.9-1.5.2-2.9.2-4.3.6-7,2.3-14,4.5-20.9,7.1-6.2,2.2-11,1.4-13.9-4.3,18.8-8.5,37.7-17,56.6-25.5-.3-.6-.6-1.3-.7-1.9-9.9,3.8-19.8,7.7-29.9,11.3-8.7,3.1-17.5,6.2-26.5,8.5-3.1.8-7.8,0-10.1-1.8-6.3-5.6-11.9-12.2-17.2-19,23.3,1.2,43.1-8.4,63.1-16.6,27-11.1,53.4-23.8,80.7-34.4,23.1-9,27.8-7.2,44.1,15.6,7.3,10.3,6.6,22.3,3,33.2-9.6,29.8-20.4,59.3-31.2,88.6-4.2,11.3-9.9,22.1-15.4,32.9-1.3,2.4-4.3,4.8-7,5.4-19.2,5.1-38.6,9.9-57.9,14.7-1,.3-2,.4-4,.6v.4h0ZM148.3,548.8c-1.7.3-3.4.6-5.1.9-25.8,5.4-48.3-1.7-68.6-17.8-26.5-21-34-50-34-82s8.6-62.9,19.4-93c5.3-15,11.9-29.5,17.9-44.4-.6.5-1.1.8-1.4,1.4-28.3,43-46.1,89.5-46.2,141.7,0,26.6,6.2,51.4,23.8,72.5,25,29.9,65.9,34.4,94.2,20.8h0Z" fill="#fff" stroke-width="0"/>
      <path d="M754.7,539.3c15,2.1,29.9,4.2,44.8,6.3v.4h-31.8c-57.3-.4-114.4,3.2-171.1,11.4-108.7,15.6-215.1,40.6-319,76.8-4.8,1.7-7.6,4.1-9.5,8.7-10.7,26.5-21.4,52.9-32.7,80.7,8.3-2.7,14.8-5.6,21.7-7,15.4-3.1,31-6,46.6-7.7,5-.6,10.5,1.9,15.4,3.9,3.4,1.3,4,4.1,2.4,8.1-7,17.5-13.6,35-20,52.6-1.1,3.1-1.7,4.6-5.6,4.2-29.8-2.8-57.4,6-84.9,15.6-1.8.6-3.7,3-4.4,5.1-15.8,41-27.7,83-32.4,126.7-1.3,11.3-.2,22.9-.2,34.1-17-4.4-28.9-18.4-30-36.4-.5-8.2,0-16.4-1.6-24.8-.8,6.6-1.8,13.3-2.6,19.9-.6,6.8-1,13.7-1.5,20.6-14.9-6.2-21.4-16-21.3-32.1,0-26,5.4-51.2,12.8-76,.6-2.3,1.3-4.5,2.4-8.6-6.1,2.5-11.3,3.8-15.5,6.5-10,6.6-18.1,5.1-26.4-3.2-7.9-7.9-16.6-15-25.9-23.2,7.9-4.7,14.5-9.1,21.4-12.8,18.9-10.1,37.9-20,57-29.7,4.8-2.4,7.8-5.3,9.6-10.5,8.9-26,18.2-51.8,27.3-77.8.6-1.6.9-3.2,1.7-6.3-9.4,3.7-17.7,6.6-25.6,10.2-17.7,8.2-35.4,16.4-52.7,25.2-11.5,5.8-21.3,5.2-31.6-3.3-17.8-14.8-36.5-28.7-54.8-42.9-.8-.6-1.8-1.1-3.6-2.2,18.9-8.5,36.3-16.7,54-24,107.2-44.1,217.7-77.3,331.7-98.8,67.4-12.8,135.1-22.1,203.8-21.8,55.9.4,111.9,2.5,166.6,15.4,19.1,4.5,37.8,11,56.6,16.8,4,1.2,7.6,3.5,12.8,5.9-29.2-2.9-56.6-5.7-84.1-8.5v2.5h0ZM307.4,589.4c-.3-.6-.5-1.4-.7-2-79.7,20.5-158,44.7-228.4,89.2,1.9,0,3.6-.9,5.2-1.7,11-5.6,21.9-11.5,33-16.7,47.6-22.1,97.4-38.3,147.5-53.7,14.6-4.5,28.9-10,43.4-15.1h0ZM323.5,595.3c0-.2-.2-.4-.2-.6,4.3-2.5,8.6-5,13-7.4-.2-.5-.5-.9-.6-1.4-21.2,6.3-42.3,12.8-63.6,19.1.2.8.4,1.6.6,2.4,4-.2,7.9-.4,12.3-.6-1.3,1.6-2.2,2.8-3.9,4.8,31.6-8.8,62.1-17.3,92.5-25.8-.2-.7-.4-1.5-.6-2.3-16.4,4-33,7.9-49.4,11.8h0Z" fill="#fff" stroke-width="0"/>
      <path d="M761.3,152.8c20.2,11.1,33.8,29.3,28.1,54.8-4.1,18.6-11.1,35.9-22.7,51.3-.6.8-1.2,2-2.1,2.5-1.6.8-3.4,1.2-5.1,1.7,0-1.6-.5-3.4,0-4.8,1.9-5,4.1-9.8,5.3-15.2-3.5,6-6.9,12-10.7,18-2.7,4.3-11.9,5.2-15.2,1.6-.6-.7,0-2.6,0-3.9-13.1,3.5-23.7-2.7-33.6-10.2-1.2-.9-.9-5,0-7.1,8.6-19.8,17.5-39.5,26.2-59.3,1-2.3,1.3-4.9,2.4-9-7.2,2.8-13.2,4.8-18.8,7.5-26.6,12.9-48.5,31.9-66.7,54.9-32.7,41.5-55.9,87.9-68.9,139.3-4.5,17.8-6.6,36.1-2,55.7-9.4-8.2-12.6-17.5-13.1-28.4-1.3-21.8,3.8-42.5,9.8-63.2.6-2,1.1-4,1.7-6.3-.7.2-1,.2-1.1.3-12.6,26.3-24.6,52.6-19.9,83,.4,2.1.8,4.2,1.5,6.3,5.1,15.3,14.3,21.3,29.7,16.6,9.5-2.9,18.8-8,26.7-14,19.9-15,35.2-34.5,49.9-54.5.7-1,1.2-2.2,1.6-2.8-21-4.4-35.7-16.5-47.6-34.3,7.2-.6,13.9,0,19.8-1.9,10.2-3.4,20.1-7.9,29.7-12.9,11.8-6,22.9-13.3,34.7-19.1,8.6-4.2,17.9-7.6,27.3-9.9,12.7-3.2,23,3.5,27.3,15.8,4,11.5,2.7,23-.9,33.9-10.7,32.5-21.9,64.8-33.3,96.9-6.3,17.7-13.8,35-20.8,52.5-2.8,7.3-4.6,7.6-15,3.8-6.2-2.3-2.5-6.4-1.7-9.7,1.4-5.3,3.3-10.6,4.3-16.3-4.3,6.7-8.7,13.3-12.8,20.1-2,3.4-4.3,4.8-8.4,4.2-7.5-.9-15.1-1.2-24.1-1.8,10.3-20.7,20.2-40.5,30-60.4-.2,0-.5-.3-.6-.4-7.9,10.2-15.6,20.6-23.7,30.7-9.9,12.3-21.5,22.9-36.6,28.3-26,9.4-49.5,2.1-71.2-12.7-23.8-16.3-34.9-40-38.9-67.8-5.3-36.7,2.4-71.6,16.4-105.3,19.1-45.7,45.7-86.2,84.1-118,25.5-21.1,54-36.7,87.1-42.8,20.8-3.9,50.1,0,71.7,12h0ZM547.1,305.2c0-.2-.2-.3-.3-.5-3.5,7.6-7.3,15.1-10.5,22.8-11.2,27.8-18.6,56.3-12.6,86.6,3.4,17.1,10.7,32.1,26.9,40.8,7.6,4.1,13.1,4.8,19.4,2.7-21.2-5.4-31.1-20.8-35.7-40.5-4.6-19.5-4-39.2-.4-58.6,3.3-17.9,8.7-35.6,13.1-53.3h0ZM721.9,392.7c-.6-.2-1-.4-1.6-.6-3.6,9.6-7.2,19.3-10.7,28.9.6.2,1.2.5,1.7.6,3.5-9.6,7-19.4,10.5-29h0Z" fill="#fff" stroke-width="0"/>
      <path d="M669.2,744.8c11.7-58.5,32.8-113,52.5-168.6,19.5,5.6,39.5,8.4,56.5,20,1.6,1.1,3.1,2.3,4.6,3.6,5.9,5.2,9.1,11,5.6,19.4-7,16.8-13.4,33.7-20,50.7-3.4,8.6-6.3,17.5-10,26-1.2,2.8-3.3,5.8-5.9,7.1-25.7,13.3-51.7,26.3-77.5,39.3-1.5.7-3,1.3-5.7,2.4h0Z" fill="#fff" stroke-width="0"/>
      <path d="M670.9,881c-.2,3.9-.4,7.7-.6,11.5-10.8-1.3-20.3-10.4-20-20.8.5-16.2,1.7-32.3,3.4-48.5.6-6.2.3-10.6-4.6-15.3-7.4-7.4-13.7-16.1-21.5-25.4,15.9-11.3,30.6-22.7,46.2-32.5,44.8-28.3,93.6-47.8,144.5-62,6.4-1.7,9.4-4.7,11.4-11,15.9-48.5,32.2-96.9,48.8-146.2,8.6,1.7,16.4,3,24.1,5,14,3.5,27.5,8.1,38.8,17.5,9.5,7.9,10.9,12.8,6.9,24.4-12.7,37-25.4,74-38.4,111-.7,2-4,4.6-5.8,4.4-15.5-1.3-21.6,6.7-26.1,20.9-13,40.5-24.1,81.4-26.2,124.1-1.1,22.5-.8,45.1,6.2,66.9,1.7,5.2,4.1,10.3,7,17.3-9.6-5.1-18.1-9-26.1-14-2.6-1.6-4.2-5.4-5.4-8.5-7.3-20.2-7.6-41.2-5.7-62.3,1.8-19.9,5.3-39.8,7.8-57.9-14,19.1-20.9,76.6-13.1,118.3-14-2.3-23-12.3-24-26.6-2.4-35.9,1.6-71.4,9.4-106.5.5-2,.7-4.1,1.4-7.3-4.8,1.4-8.8,1.9-12.3,3.6-20.7,9.5-41.2,19.2-61.7,28.8-5.3,2.5-8.1,6.6-9.3,12.3-6,27.5-12.1,54.8-18.1,81.5-5-26.4-.6-53.2,6-80.4-3.6-1.4-6.4-1.7-7.8,2.6-9.9,30.5-16,61.5-11.9,93.9.4,2.6.9,5.1,1.5,7.7-11.2-2.6-14.1-5.7-24.8-26.5l.3.2h0ZM708,791.8c17.7-8.7,35.4-17.4,53.1-26.1-19.5,5.2-37.5,13.5-53.1,26.1Z" fill="#fff" stroke-width="0"/>
      <path d="M908.5,386.7c-.8,1.7-2.1,3.4-2.4,5.1-4.1,30-4.9,60.1.8,89.9,2,10.7,5,21.2,7.5,31.8-12.6-3.5-22.2-10.3-25.2-24.3-2-9.9-4.2-19.8-6.4-29.8v35c-8.9-5.9-16.4-13.3-17.7-23.9-2.1-16.3-2.5-32.7-3.6-49.1-.2-3.4,0-6.9,0-11.8-10.3,4.6-19.9,8.7-29.5,13.2-5.9,2.8-11.5,6.1-17.2,9.3-4,2.3-7.5,2.1-11.1-1.2-4.4-4-9.3-7.7-14.1-11.7-9.1,29.8-20.3,58.7-21.5,90.1-13.4-3-14.5-4.5-17.6-23.9-1.9,5.7-3.4,9.8-5.1,14.6-4-1.6-8.1-2.6-11.3-4.8-2.2-1.6-5-5.1-4.6-7.3,1.9-13.9,3.5-27.9,7.3-41.3,13.6-48.6,34.5-94.3,57.4-139,23-44.9,48.1-88.6,72.3-132.9,2.4-4.3,4.6-8.7,7.4-14.1,20.1,4,41.5,5.6,58.2,20.8,7,6.3,9,14.5,8.1,23.6-2.5,25.3-5.1,50.4-7.2,75.7-1.3,15.8-1.6,31.6-1.9,47.4,0,4.9-1.7,7.1-6.4,8.7-13,4.5-25.7,9.8-38.6,14.8.2.6.5,1.3.6,1.9,2.1-.6,4.1-1.3,6.2-1.9,18.7-6.2,37.5-12.1,57.3-13.4,4.5-.3,7.5.9,9.4,5.1,4.2,9.5,8.5,18.8,13,28.9-11.1,2.6-21.1,4.7-31.1,7.2-14.1,3.5-14.6,3.7-14.8,18.1-.2,17.1.6,34.2,1.1,51.3,0,2.8.4,5.5.6,8.4-.7,0-1.4.2-2.1.2-1.8-17.4-3.8-34.6-5.6-52-2.9,16.9-2.3,33.9,1.1,50.8-.6,0-1.3.2-2,.4-2.3-11.3-5.1-22.5-6.9-33.9-1.7-11.5-2.2-23.2-3.2-34.7-.5-.4-1-.7-1.5-1v-.4h0ZM836.2,320.2c-.4-.2-.6-.3-1-.5-9,18.1-18,36.2-27,54.3-.3,0-.6-.3-.9-.4,4.9-13.5,9.7-27,14.7-40.5-.6-.3-1.3-.6-1.9-.9-11.1,22-22.2,43.8-33,65.2,23.8-10.2,47.6-20.4,71.5-30.4,4.2-1.7,6.3-4.1,7.2-8.7,5.6-30.9,11.5-61.6,17.3-92.4,1.3-6.7,2.6-13.4,4.2-21.9-7.6,15.7-14.1,29.9-21.3,43.6-14.3,27.2-29,54.2-43.6,81.2-1.2,2.2-3.2,4-4.8,6-.9-.6-1.7-1.2-2.7-1.7,7.2-17.6,14.3-35.3,21.5-53h0Z" fill="#fff" stroke-width="0"/>
      <path d="M641.8,677.8c-6,8.7-11.9,17.5-18.1,26.1-2.9,4.1-9.6,4-12.8,0-.8-1-.4-3.1-.5-5-7.7,1.7-15.1,0-21.9-4.2-6.6-4.2-7.3-7.5-3.8-14.6,9-18,18.4-35.8,26.8-54.1,3.7-7.8,5.5-16.5,8.5-26-14.2,3.1-25.3,8.5-35.1,16.1-16.1,12.4-28.5,27.8-36.2,46.8-10.8,26.6-6.9,51.1,13.1,72.1,7.7,8.2,16.6,15.2,25,22.7,6.1,5.5,12.3,10.9,18.2,16.6,15.8,15.4,22.6,34.1,18.5,56-3.2,16.9-8.3,33.3-16.7,48.2-2.6,4.6-5.8,8.8-9.5,12.8,3.9-9.5,7.6-18.9,11.5-28.4h-.6c-8.5,12.3-16.8,24.7-25.3,37-.7-.5-1.5-.8-2.3-1.3,12.1-16.5,20.8-34.5,23.2-56.6-1.5,2.2-2.2,3.2-2.8,4.2-.7,1.4-1.3,2.8-1.8,4.1-9.7,21.7-22.8,40.6-42.2,55-48.5,35.9-104.8-2.1-113.2-41.4-4.4-20.9-5-41.2,1.4-61.5,3.7-11.8,7.4-23.5,11.7-36.7,13.2,6,26.5,10.8,38.5,17.7,12.9,7.4,13.9,13,9,26.9-8.2,23.2-8.8,30.5-7,61.9-5.1-7.7-10.2-15.4-15.3-23.2h-.8c2.2,6.5,4.4,13,6.6,19.5-.5.3-.9.6-1.4.8-3.4-5.5-7.4-10.7-10.1-16.6-2.8-5.9-4.3-12.4-6.5-19.3-3.6,15.3,2,31.8,12.7,38.8,11.5,7.5,26.4,6.7,38.9-2.8,23.3-17.8,34.2-42.5,37.3-70.9,1.5-13.4-3.3-25.6-12.4-35.2-14-14.5-28.7-28.3-43.4-42.1-23.2-21.6-28.5-44.1-16.5-73.4,20-49.3,74-81.4,126.8-75.1,18.4,2.2,34.4,9.4,47.2,23.4,13.3,14.8,16.8,31.1,10.7,49.9-7.5,23.2-20.5,43.4-35.7,62.2-1.3,1.6-4.7,1.5-7.1,2.1,0-2.4-.8-5.3.2-7.2,4.5-8.5,9.5-16.9,14.2-25.3-.3-.3-.6-.6-.9-.8l-.2.5h0ZM480.7,887.7c10.6,11.8,23.6,14.5,38.2,10.9,13.1-3.2,21.8-11.9,26.9-24.3-19.3,16.7-39.9,25.8-65.1,13.3h0Z" fill="#fff" stroke-width="0"/>
      <path d="M450.8,155.9c20.3,6,40,11.7,59.5,17.7,3.6,1.1,6.9,3.6,9.9,6,9.2,7.2,10.7,12.8,6.5,23.8-17,44.9-34.6,89.6-51.1,134.8-14.6,40.3-26.4,81.6-31.9,124.3-1.4,10.9-1.8,21.9-2.8,33.8-3.4-37.1,2.2-72.5,9.3-107.8-10.4,32.2-16.7,65.2-17.6,99.1-4.4-38.5,2.4-76,11.2-114.8-14.1,21.7-33.6,90-26,135.5-5.9,1-11.8,1.9-18.6,3-7.2-28.4-4.2-56.5-.9-84.6-11.4,22.8-14.1,47.3-14.2,72.5-8.2-17.1-8.5-35.4-9.3-53.7-4.1,16.3-4.4,32.6-2.9,49.3-.9-7.2-2.5-14.3-2.8-21.5-1.5-42.3,7.2-83.1,17.4-123.7,14.2-56.8,34.8-111.4,54.6-166.5,3-8.5,6.1-17.1,9.6-27.2h0Z" fill="#fff" stroke-width="0"/>
      <path d="M404,606.8c15.5,5.2,30.7,10.3,45.7,15.5,2.8,1,5.4,2.7,8,4.3,9.4,6.2,10.1,10.4,6.6,20.9-14.7,44.4-29.2,88.7-43.2,133.3-5.3,17.1-8.9,34.7-13.3,52.2-.4,1.6-1,3-2.9,4.3,3.8-23.4,7.6-46.8,11.4-70.2-.5,0-.9-.3-1.4-.4-5.9,23.4-11.9,46.9-16.8,66.8,1.2-25.4,6.5-54.2,14.1-82.5-22,55.1-39.2,110.6-17.4,170.8-2.5-1.4-5.3-3.4-8.5-4.7-18.1-7.5-22.5-22.8-22.2-40.1.2-17.3,1.5-34.5,2.3-51.9,0-1.5,0-2.9-.5-4.5-8.7,24.3-11.4,49.2-9.3,75.5-14.6-8.1-22.7-18.9-22.4-36,.6-29.2,4.9-57.7,12.4-85.8,14.7-55.1,34.1-108.5,54.8-161.6.6-1.4,1.2-2.8,2.7-5.9h0Z" fill="#fff" stroke-width="0"/>
      <path d="M941.4,704.1c-10.3,1.9-20.5,4.1-30.9,5.5-6.2.8-8.1,4.1-9.6,9.5-12.5,45.7-24.3,91.6-27.5,139.2-.7,0-1.5-.2-2.2-.3,2.9-29.9,5.9-59.8,8.6-87.5-9.3,29-14.9,60.9-15.1,93.7,0-17.9-1-35.8.2-53.6,2.2-32.9,9.6-64.9,17.8-96.7,2.8-10.6,2.8-11.1,13.7-11.9,12.7-.8,25.4-.8,38.2-.9,2.3,0,4.5,1.1,6.8,1.7,0,.5-.2,1-.3,1.5h0Z" fill="#fff" stroke-width="0"/>
    </g>
  </g>
</svg>